<?xml version="1.0" encoding="utf-8"?>
<!-- Generator: Adobe Illustrator 26.1.0, SVG Export Plug-In . SVG Version: 6.00 Build 0)  -->
<svg version="1.1" id="Capa_1" xmlns="http://www.w3.org/2000/svg" xmlns:xlink="http://www.w3.org/1999/xlink" x="0px" y="0px"
	 viewBox="0 0 256 86.66" style="enable-background:new 0 0 256 86.66;" xml:space="preserve">
<style type="text/css">
	.st0{fill:#FFFFFF;}
</style>
<g>
	<path class="st0" d="M10.4,0h235.2c5.74,0,10.4,4.66,10.4,10.4v65.86c0,5.74-4.66,10.4-10.4,10.4H10.4C4.66,86.66,0,82,0,76.26
		V10.4C0,4.66,4.66,0,10.4,0z"/>
	<path d="M56.04,41.36c-0.05-6.21,5.08-9.22,5.3-9.36c-2.91-4.23-7.42-4.82-9-4.87c-3.78-0.4-7.45,2.27-9.38,2.27
		c-1.96,0-4.94-2.22-8.13-2.17c-4.11,0.07-7.97,2.44-10.07,6.15c-4.35,7.54-1.11,18.63,3.07,24.73c2.1,2.98,4.52,6.33,7.73,6.21
		c3.12-0.12,4.3-1.99,8.06-1.99c3.74,0,4.84,1.99,8.09,1.92c3.36-0.05,5.46-3,7.49-6.01c2.41-3.41,3.38-6.79,3.41-6.97
		C62.54,51.23,56.11,48.77,56.04,41.36 M49.88,23.12c1.68-2.1,2.83-4.96,2.51-7.87c-2.43,0.1-5.48,1.68-7.23,3.74
		c-1.54,1.82-2.93,4.78-2.58,7.57C45.32,26.78,48.13,25.18,49.88,23.12 M101.31,63.89h-4.37l-2.39-7.52h-8.32l-2.27,7.52h-4.25
		l8.23-25.6h5.1L101.31,63.89z M93.84,53.21l-2.17-6.67c-0.23-0.69-0.66-2.29-1.28-4.82H90.3c-0.26,1.09-0.66,2.7-1.21,4.82
		l-2.13,6.67H93.84z M122.47,54.44c0,3.14-0.85,5.62-2.57,7.44c-1.53,1.63-3.43,2.43-5.69,2.43c-2.44,0-4.19-0.87-5.27-2.62v9.69
		h-4.11V51.49c0-1.98-0.05-3.99-0.16-6.07h3.61l0.23,2.93h0.07c1.37-2.2,3.45-3.31,6.22-3.31c2.18,0,3.99,0.87,5.44,2.58
		C121.74,49.36,122.47,51.62,122.47,54.44L122.47,54.44z M118.29,54.58c0-1.8-0.4-3.28-1.21-4.44c-0.88-1.21-2.08-1.82-3.57-1.82
		c-1.01,0-1.92,0.35-2.76,1.01c-0.81,0.68-1.37,1.54-1.61,2.63c-0.12,0.5-0.19,0.92-0.19,1.25v3.09c0,1.33,0.42,2.48,1.23,3.4
		c0.81,0.92,1.89,1.39,3.21,1.39c1.54,0,2.74-0.61,3.61-1.79C117.86,58.1,118.29,56.54,118.29,54.58z M143.69,54.44
		c0,3.14-0.85,5.62-2.57,7.44c-1.53,1.63-3.43,2.43-5.69,2.43c-2.44,0-4.19-0.87-5.27-2.62v9.69h-4.11V51.49
		c0-1.98-0.05-3.99-0.16-6.07h3.61l0.23,2.93h0.07c1.37-2.2,3.45-3.31,6.22-3.31c2.18,0,3.99,0.87,5.44,2.58
		C142.96,49.36,143.69,51.62,143.69,54.44L143.69,54.44z M139.51,54.58c0-1.8-0.4-3.28-1.21-4.44c-0.88-1.21-2.08-1.82-3.57-1.82
		c-1.01,0-1.92,0.35-2.76,1.01c-0.81,0.68-1.35,1.54-1.61,2.63c-0.12,0.5-0.19,0.92-0.19,1.25v3.09c0,1.33,0.42,2.48,1.23,3.4
		c0.81,0.92,1.89,1.39,3.21,1.39c1.54,0,2.76-0.61,3.61-1.79C139.09,58.1,139.51,56.54,139.51,54.58z M167.43,56.71
		c0,2.18-0.76,3.95-2.27,5.32c-1.66,1.49-3.99,2.24-6.97,2.24c-2.76,0-4.96-0.54-6.62-1.59l0.95-3.41c1.8,1.06,3.78,1.59,5.93,1.59
		c1.54,0,2.76-0.35,3.61-1.04c0.87-0.69,1.3-1.63,1.3-2.79c0-1.04-0.36-1.91-1.06-2.62c-0.71-0.71-1.89-1.37-3.54-1.98
		c-4.52-1.68-6.76-4.13-6.76-7.33c0-2.1,0.8-3.81,2.37-5.17c1.58-1.33,3.67-2.01,6.29-2.01c2.32,0,4.26,0.4,5.81,1.21l-1.04,3.33
		c-1.46-0.78-3.09-1.18-4.92-1.18c-1.44,0-2.58,0.36-3.4,1.06c-0.68,0.64-1.02,1.4-1.02,2.32c0,1.01,0.4,1.85,1.18,2.5
		c0.68,0.61,1.92,1.27,3.73,1.98c2.2,0.88,3.81,1.92,4.85,3.12C166.91,53.45,167.43,54.94,167.43,56.71 M181.02,48.51h-4.52v8.96
		c0,2.27,0.8,3.41,2.39,3.41c0.73,0,1.33-0.07,1.82-0.19l0.12,3.12c-0.81,0.29-1.87,0.45-3.19,0.45c-1.63,0-2.88-0.5-3.8-1.49
		s-1.37-2.65-1.37-4.97V48.5h-2.69v-3.07h2.69v-3.38l4.02-1.21v4.59h4.52V48.51z M201.37,54.51c0,2.84-0.81,5.17-2.43,6.98
		c-1.7,1.87-3.95,2.81-6.76,2.81c-2.7,0-4.87-0.9-6.48-2.69c-1.61-1.79-2.41-4.06-2.41-6.79c0-2.86,0.83-5.2,2.48-7.02
		c1.66-1.82,3.9-2.74,6.71-2.74c2.7,0,4.89,0.9,6.53,2.7C200.59,49.5,201.37,51.75,201.37,54.51L201.37,54.51z M197.12,54.6
		c0-1.7-0.36-3.14-1.09-4.35c-0.87-1.47-2.1-2.2-3.69-2.2c-1.65,0-2.91,0.73-3.76,2.2c-0.75,1.21-1.09,2.69-1.09,4.44
		c0,1.7,0.36,3.15,1.09,4.35c0.88,1.47,2.13,2.2,3.73,2.2c1.56,0,2.79-0.75,3.69-2.24C196.74,57.75,197.12,56.3,197.12,54.6
		L197.12,54.6z M214.71,49.03c-0.4-0.07-0.83-0.1-1.3-0.1c-1.44,0-2.57,0.54-3.35,1.63c-0.68,0.95-1.02,2.18-1.02,3.64v9.69h-4.11
		V51.23c0-2.13-0.03-4.07-0.12-5.81h3.57l0.16,3.54h0.12c0.43-1.21,1.11-2.2,2.05-2.93c0.92-0.66,1.91-0.99,2.96-0.99
		c0.38,0,0.73,0.03,1.02,0.07L214.71,49.03z M233.05,53.78c0,0.73-0.05,1.35-0.16,1.85h-12.31c0.05,1.82,0.64,3.22,1.79,4.18
		c1.04,0.85,2.37,1.28,4.02,1.28c1.82,0,3.48-0.29,4.97-0.87l0.64,2.84c-1.75,0.76-3.81,1.14-6.19,1.14c-2.86,0-5.11-0.85-6.74-2.53
		s-2.44-3.95-2.44-6.78c0-2.77,0.76-5.1,2.29-6.95c1.59-1.98,3.74-2.96,6.45-2.96c2.65,0,4.68,0.99,6.03,2.96
		C232.5,49.55,233.05,51.48,233.05,53.78L233.05,53.78z M229.13,52.73c0.03-1.21-0.24-2.27-0.8-3.15c-0.71-1.14-1.8-1.72-3.26-1.72
		c-1.33,0-2.43,0.55-3.26,1.66c-0.68,0.88-1.09,1.96-1.21,3.19L229.13,52.73z"/>
	<path d="M91.86,29.14h-2.15l-1.18-3.69h-4.09l-1.13,3.69h-2.08l4.04-12.58h2.5L91.86,29.14z M88.17,23.88l-1.06-3.29
		c-0.1-0.33-0.31-1.13-0.64-2.37h-0.03c-0.14,0.54-0.31,1.32-0.61,2.37l-1.04,3.29H88.17z M101.98,20.05l-3.43,9.08h-1.96
		l-3.33-9.08h2.17l1.54,4.8c0.26,0.8,0.49,1.56,0.66,2.29h0.05c0.16-0.66,0.38-1.42,0.66-2.29l1.53-4.8L101.98,20.05z M109.3,29.14
		l-0.16-1.04h-0.05c-0.62,0.83-1.51,1.25-2.65,1.25c-1.63,0-2.77-1.14-2.77-2.67c0-2.24,1.94-3.4,5.3-3.4V23.1
		c0-1.2-0.64-1.79-1.89-1.79c-0.9,0-1.68,0.23-2.37,0.68l-0.42-1.32c0.83-0.52,1.89-0.78,3.12-0.78c2.37,0,3.57,1.25,3.57,3.76V27
		c0,0.92,0.03,1.63,0.14,2.17L109.3,29.14z M109.02,24.61c-2.24,0-3.36,0.54-3.36,1.84c0,0.95,0.57,1.42,1.39,1.42
		c1.02,0,1.98-0.78,1.98-1.85V24.61z M115.47,18.56c-0.68,0-1.2-0.52-1.2-1.21c0-0.69,0.54-1.2,1.23-1.2c0.69,0,1.25,0.5,1.23,1.2
		C116.73,18.08,116.21,18.56,115.47,18.56L115.47,18.56z M114.5,20.05h2.01v9.06h-2.01V20.05z M120.1,15.89h2.01v13.22h-2.01V15.89z
		 M130.67,29.14l-0.16-1.04h-0.05c-0.62,0.83-1.51,1.25-2.65,1.25c-1.63,0-2.77-1.14-2.77-2.67c0-2.24,1.94-3.4,5.3-3.4V23.1
		c0-1.2-0.64-1.79-1.89-1.79c-0.9,0-1.68,0.23-2.37,0.68l-0.42-1.33c0.83-0.52,1.89-0.78,3.12-0.78c2.37,0,3.57,1.25,3.57,3.76v3.35
		c0,0.92,0.03,1.63,0.12,2.17h-1.8L130.67,29.14z M130.39,24.61c-2.24,0-3.36,0.54-3.36,1.84c0,0.95,0.57,1.42,1.39,1.42
		c1.02,0,1.98-0.78,1.98-1.85V24.61z M140.53,29.34c-1.28,0-2.24-0.54-2.86-1.61h-0.03l-0.12,1.4h-1.72
		c0.05-0.73,0.07-1.54,0.07-2.44v-10.8h2.03v5.49h0.03c0.61-1.01,1.56-1.51,2.89-1.51c2.18,0,3.71,1.87,3.71,4.59
		C144.54,27.28,142.84,29.34,140.53,29.34L140.53,29.34z M140.12,21.46c-1.16,0-2.22,1.01-2.22,2.41v1.59
		c0,1.25,0.95,2.27,2.18,2.27c1.51,0,2.41-1.23,2.41-3.19C142.49,22.71,141.55,21.46,140.12,21.46z M147.52,15.89h2.01v13.22h-2.01
		V15.89z M160.5,25.08h-6.05c0.03,1.72,1.18,2.69,2.86,2.69c0.9,0,1.72-0.16,2.44-0.43l0.31,1.4c-0.85,0.38-1.85,0.55-3.03,0.55
		c-2.84,0-4.52-1.79-4.52-4.58c0-2.77,1.72-4.87,4.3-4.87c2.31,0,3.78,1.72,3.78,4.32C160.58,24.53,160.57,24.84,160.5,25.08
		L160.5,25.08z M158.66,23.64c0-1.4-0.71-2.39-1.99-2.39c-1.16,0-2.06,1.01-2.2,2.39H158.66z M172.72,29.34
		c-2.65,0-4.37-1.98-4.37-4.66c0-2.81,1.75-4.8,4.52-4.8c2.62,0,4.37,1.89,4.37,4.65C177.24,27.35,175.44,29.34,172.72,29.34
		L172.72,29.34z M172.8,21.35c-1.46,0-2.39,1.37-2.39,3.26c0,1.87,0.95,3.22,2.37,3.22c1.42,0,2.37-1.46,2.37-3.28
		C175.14,22.72,174.23,21.35,172.8,21.35L172.8,21.35z M188.07,29.14h-2.01v-5.22c0-1.61-0.62-2.41-1.84-2.41
		c-1.2,0-2.01,1.02-2.01,2.22v5.39h-2.01v-6.46c0-0.8-0.02-1.66-0.07-2.6h1.77l0.09,1.4h0.05c0.54-0.97,1.65-1.59,2.88-1.59
		c1.91,0,3.15,1.46,3.15,3.83V29.14z M201.26,21.58h-2.22v4.4c0,1.13,0.4,1.68,1.18,1.68c0.35,0,0.66-0.03,0.9-0.09l0.05,1.53
		c-0.4,0.16-0.92,0.23-1.56,0.23c-1.59,0-2.53-0.88-2.53-3.17v-4.58h-1.32v-1.51h1.32v-1.66l1.98-0.61v2.25h2.22v1.53 M211.94,29.14
		h-2.01v-5.18c0-1.63-0.62-2.44-1.84-2.44c-1.04,0-2.01,0.71-2.01,2.15v5.46h-2.01V15.89h2.01v5.44h0.03
		c0.64-0.99,1.54-1.47,2.72-1.47c1.92,0,3.1,1.49,3.1,3.87V29.14z M222.24,25.08h-6.05c0.03,1.72,1.18,2.69,2.86,2.69
		c0.9,0,1.72-0.16,2.44-0.43l0.31,1.4c-0.85,0.38-1.85,0.55-3.03,0.55c-2.84,0-4.52-1.79-4.52-4.58c0-2.77,1.72-4.87,4.3-4.87
		c2.31,0,3.78,1.72,3.78,4.32C222.32,24.53,222.31,24.84,222.24,25.08L222.24,25.08z M220.4,23.64c0-1.4-0.71-2.39-1.99-2.39
		c-1.16,0-2.08,1.01-2.2,2.39H220.4z"/>
</g>
</svg>
