<?xml version="1.0" encoding="utf-8"?>
<!-- Generator: Adobe Illustrator 26.1.0, SVG Export Plug-In . SVG Version: 6.00 Build 0)  -->
<svg version="1.1" id="Capa_1" xmlns="http://www.w3.org/2000/svg" xmlns:xlink="http://www.w3.org/1999/xlink" x="0px" y="0px"
	 viewBox="0 0 256 256" style="enable-background:new 0 0 256 256;" xml:space="preserve">
<style type="text/css">
	.st0{fill-rule:evenodd;clip-rule:evenodd;fill:#FADD9E;}
</style>
<path class="st0" d="M116.97,35.05c-26.61-15.73-13.31-7.86-39.92-23.59V0c29.7,17.56,21.89,12.96,49.27,29.15
	C153.7,12.96,145.9,17.56,175.59,0v11.45c-26.61,15.73-13.31,7.86-39.92,23.59l19.54,11.55l50.58-29.8v-0.07l9.71-5.72v24.03v50.04
	v8.6l-7.28-4.3l-33.39-19.74l9.7-5.72l21.26,12.57V35.05v-6.83l-40.91,24.1l0.02,0.01l-9.67,5.71l-0.04-0.02l-19.2,11.31l10.2,6.01
	l2.21,1.3l0.21,2.58l11.5,138.99l0.19,2.24l-1.57,1.64l-28.98,30.29l-3.45,3.61l-3.45-3.61l-28.98-30.29l-1.57-1.64l0.19-2.24
	l11.5-138.99l0.21-2.58l2.21-1.3l10.2-6.01l-19.2-11.31l-0.04,0.02l-9.67-5.71l0.02-0.01l-40.91-24.1v6.83v41.45l21.26-12.57
	l9.7,5.72L44.42,89.38l-7.28,4.3v-8.6V35.05V11.01l9.71,5.72v0.07l50.58,29.8L116.97,35.05L116.97,35.05z M126.33,40.94L107.11,52.3
	l19.21,11.32l0,0l0,0l19.21-11.32L126.33,40.94L126.33,40.94z M126.33,75.04L126.33,75.04l-12.86,7.58l-11.1,134.17l23.96,25.04l0,0
	l0,0l23.96-25.04l-11.1-134.17L126.33,75.04L126.33,75.04z"/>
</svg>
