<svg id="Capa_1" data-name="Capa 1" xmlns="http://www.w3.org/2000/svg" viewBox="0 0 96 96"><defs><style>.cls-1{fill:#030302;}.cls-2{fill:#fdfdfd;}.cls-3{fill:#fcd129;}</style></defs><path class="cls-1" d="M0,83c4-7.09,8-14.19,12-21.26Q27.49,34.61,43,7.52a6,6,0,0,1,5.6-3.11,6,6,0,0,1,5.52,3.23q19.75,35.3,39.52,70.59A38,38,0,0,1,96,83v3.58a8.76,8.76,0,0,1-5.7,5.38H5.43A8.54,8.54,0,0,1,0,86.85Zm48,4.39H87.42c.45,0,.9,0,1.35,0a2.55,2.55,0,0,0,2.55-3,5.08,5.08,0,0,0-.73-2.09q-20-35.76-40-71.52c-.48-.84-.9-1.71-2-1.71s-1.58.86-2.06,1.7q-13.12,23-26.27,46L6.27,81.12c-.37.65-.74,1.3-1.08,2-1.32,2.65-.33,4.26,2.66,4.26Z"/><path class="cls-2" d="M90.27,91.93A8.76,8.76,0,0,0,96,86.55c0,1.6,0,3.19,0,4.78,0,.52-.1.63-.62.62C93.67,91.9,92,91.93,90.27,91.93Z"/><path class="cls-2" d="M0,86.85a8.54,8.54,0,0,0,5.4,5.08c-1.6,0-3.2,0-4.8,0-.52,0-.63-.1-.62-.62C.06,89.84,0,88.35,0,86.85Z"/><path class="cls-3" d="M48,87.36H7.85c-3,0-4-1.61-2.66-4.26.34-.67.71-1.32,1.08-2L20.18,56.74q13.14-23,26.27-46c.48-.84.91-1.7,2.06-1.7s1.56.87,2,1.71q20,35.78,40,71.52a5.08,5.08,0,0,1,.73,2.09,2.55,2.55,0,0,1-2.55,3c-.45,0-.9,0-1.35,0ZM55.25,36c.18-1.75.42-3.44-1.16-4.83a8,8,0,0,0-10.88.33,3.35,3.35,0,0,0-1,2.83c.76,8.48,1.46,17,2.18,25.44a4.55,4.55,0,0,0,4.45,4.38,4.49,4.49,0,0,0,4.63-4.32C54.08,51.84,54.65,43.89,55.25,36ZM42.55,73.74A6.44,6.44,0,0,0,49,80.21a6.54,6.54,0,0,0,6.46-6.49A6.44,6.44,0,0,0,49,67.38,6.35,6.35,0,0,0,42.55,73.74Z"/><path class="cls-1" d="M55.25,36c-.6,7.94-1.17,15.89-1.8,23.83a4.49,4.49,0,0,1-4.63,4.32,4.55,4.55,0,0,1-4.45-4.38c-.72-8.48-1.42-17-2.18-25.44a3.35,3.35,0,0,1,1-2.83,8,8,0,0,1,10.88-.33C55.67,32.51,55.43,34.2,55.25,36Z"/><path class="cls-1" d="M42.55,73.74A6.35,6.35,0,0,1,49,67.38a6.44,6.44,0,0,1,6.4,6.34A6.54,6.54,0,0,1,49,80.21,6.44,6.44,0,0,1,42.55,73.74Z"/></svg>