<svg id="Capa_1" data-name="Capa 1" xmlns="http://www.w3.org/2000/svg" viewBox="0 0 96 96"><defs><style>.cls-1{fill:#4a4a4c;}.cls-2{fill:#44b44b;}</style></defs><path class="cls-1" d="M48,0A48,48,0,1,0,96,48,48,48,0,0,0,48,0Zm0,81.94A33.94,33.94,0,1,1,81.94,48,33.93,33.93,0,0,1,48,81.94Z"/><path class="cls-2" d="M69.75,38.78H57.22V26.25a5.63,5.63,0,0,0-5.63-5.63H44.41a5.63,5.63,0,0,0-5.63,5.63V38.78H26.25a5.63,5.63,0,0,0-5.63,5.63v7.18a5.63,5.63,0,0,0,5.63,5.63H38.78V69.75a5.63,5.63,0,0,0,5.63,5.63h7.18a5.63,5.63,0,0,0,5.63-5.63V57.22H69.75a5.63,5.63,0,0,0,5.63-5.63V44.41A5.63,5.63,0,0,0,69.75,38.78Z"/></svg>