<?xml version="1.0" encoding="utf-8"?>
<!-- Generator: Adobe Illustrator 26.1.0, SVG Export Plug-In . SVG Version: 6.00 Build 0)  -->
<svg version="1.1" id="Capa_1" xmlns="http://www.w3.org/2000/svg" xmlns:xlink="http://www.w3.org/1999/xlink" x="0px" y="0px"
	 viewBox="0 0 512 80.96" style="enable-background:new 0 0 512 80.96;" xml:space="preserve">
<style type="text/css">
	.st0{filter:url(#Adobe_OpacityMaskFilter);}
	.st1{fill:#FFFFFF;}
	.st2{mask:url(#SVGID_1_);fill:url(#SVGID_00000121266263131807454360000016038473051802232461_);}
	.st3{fill:url(#SVGID_00000063634473253417414450000003240757808514733976_);}
	.st4{fill:#0E1B28;}
	.st5{filter:url(#Adobe_OpacityMaskFilter_00000105402944091036133490000017333885001799659932_);}
	
		.st6{mask:url(#SVGID_00000034771376507919221680000009753313549409595060_);fill:url(#SVGID_00000149372878196076670130000001459404958606406784_);}
	.st7{fill:#FF8B00;}
</style>
<defs>
	<filter id="Adobe_OpacityMaskFilter" filterUnits="userSpaceOnUse" x="0" y="0" width="80.96" height="80.96">
		<feColorMatrix  type="matrix" values="1 0 0 0 0  0 1 0 0 0  0 0 1 0 0  0 0 0 1 0"/>
	</filter>
</defs>
<mask maskUnits="userSpaceOnUse" x="0" y="0" width="80.96" height="80.96" id="SVGID_1_">
	<g class="st0">
		<g>
			<path class="st1" d="M72.58,15.82c-0.6,0.38-1.2,0.75-1.8,1.13c5.05,6.5,8.06,14.66,8.06,23.53c0,21.19-17.17,38.36-38.36,38.36
				S2.12,61.66,2.12,40.48c0-8.88,3.02-17.06,8.09-23.57c-0.6-0.38-1.2-0.75-1.8-1.13C3.14,22.62,0,31.18,0,40.48
				c0,22.36,18.12,40.48,40.48,40.48s40.48-18.12,40.48-40.48C80.96,31.2,77.83,22.64,72.58,15.82z"/>
			<path class="st1" d="M13.54,13.17C20.47,6.34,29.98,2.12,40.48,2.12c10.51,0,20.03,4.23,26.96,11.08
				c0.69-0.31,1.38-0.62,2.07-0.92C62.15,4.7,51.87,0,40.48,0c-11.37,0-21.65,4.69-29,12.25C12.16,12.55,12.85,12.86,13.54,13.17z"
				/>
		</g>
	</g>
</mask>
<linearGradient id="SVGID_00000016793905834752016070000000262747795662702746_" gradientUnits="userSpaceOnUse" x1="40.4788" y1="80.9575" x2="40.4788" y2="2.728484e-12">
	<stop  offset="0" style="stop-color:#1379F4"/>
	<stop  offset="1" style="stop-color:#00FFFF"/>
</linearGradient>
<path style="mask:url(#SVGID_1_);fill:url(#SVGID_00000016793905834752016070000000262747795662702746_);" d="M40.48,0
	C18.12,0,0,18.12,0,40.48s18.12,40.48,40.48,40.48s40.48-18.12,40.48-40.48S62.83,0,40.48,0z M40.48,78.84
	c-21.19,0-38.36-17.17-38.36-38.36S19.29,2.12,40.48,2.12s38.36,17.17,38.36,38.36S61.66,78.84,40.48,78.84z"/>
<linearGradient id="SVGID_00000054977015851563215170000011453951688235187334_" gradientUnits="userSpaceOnUse" x1="40.5868" y1="70.0788" x2="40.5868" y2="59.5881">
	<stop  offset="0" style="stop-color:#1379F4"/>
	<stop  offset="1" style="stop-color:#00FFFF"/>
</linearGradient>
<path style="fill:url(#SVGID_00000054977015851563215170000011453951688235187334_);" d="M38.13,60.11c-0.5,0.08-0.61,0.31-0.47,0.8
	c0.62,2.15,1.21,4.32,1.82,6.48c0.26,0.92,0.49,1.85,1.09,2.69c0.11-0.19,0.2-0.36,0.29-0.52c0.66-1.18,0.85-2.51,1.22-3.78
	c0.49-1.65,0.93-3.31,1.38-4.96c0.06-0.21,0.23-0.49-0.12-0.59c-1.41-0.37-2.81-1.02-4.31-0.35C38.75,60,38.44,60.06,38.13,60.11z"
	/>
<g>
	<path class="st4" d="M37.65,25.39c-2.62-1.2-5.24-2.39-7.87-3.58c-1.15-0.52-2.26-1.2-3.59-1.21c-0.16,0-0.33-0.11-0.49-0.18
		c-6.89-3.08-13.78-6.17-20.67-9.25c-0.25-0.11-0.62-0.45-0.76-0.19c-0.17,0.3,0.31,0.42,0.54,0.56c6.74,4.24,13.48,8.47,20.21,12.7
		c0.17,0.1,0.37,0.17,0.5,0.43c-4.76,1.17-9.47,2.34-14.22,3.51c0.16,0.26,0.31,0.22,0.43,0.22c3.39-0.06,6.78-0.11,10.17-0.17
		c0.21,0,0.38-0.05,0.5-0.23c0.53-0.81,1.3-1.05,2.22-0.98c0.33,0.02,0.67-0.01,1-0.06c0.61-0.09,1.14,0.04,1.64,0.42
		c0.53,0.4,1.13,0.7,1.66,1.1c0.14,0.11,0.27,0.14,0.38,0.13c-0.64-0.63-1.28-1.27-1.93-1.9c-0.51-0.5-0.86-1.06-0.83-1.82
		c-0.01-0.51,0.19-0.99,0.3-1.49c0.05-0.24,0.18-0.08,0.27-0.03c1.35,0.82,2.71,1.65,4.06,2.47c0.48,0.29,0.97,0.59,1.45,0.88
		c1.8-0.33,3.61-0.68,5.46-1.03C37.95,25.48,37.79,25.46,37.65,25.39z M33.51,25.57l0.53,0.04C33.86,25.62,33.69,25.61,33.51,25.57z
		"/>
	<path class="st4" d="M76.69,10.97c-0.14-0.26-0.52,0.08-0.76,0.19c-6.89,3.08-13.78,6.17-20.67,9.25
		c-0.16,0.07-0.33,0.18-0.49,0.18c-1.33,0.01-2.43,0.69-3.59,1.21c-2.63,1.19-5.25,2.39-7.87,3.58c-0.14,0.06-0.3,0.09-0.44,0.3
		c1.84,0.34,3.64,0.69,5.43,1.02c1.78-1.09,3.57-2.18,5.35-3.26c0.11-0.06,0.21-0.13,0.33-0.19c0.14,0.41,0.3,0.8,0.39,1.22
		c0.17,0.76,0,1.45-0.57,1.98c-0.76,0.69-1.49,1.41-2.22,2.14c0.13,0.03,0.28,0.01,0.45-0.12c0.53-0.4,1.13-0.71,1.66-1.1
		c0.51-0.38,1.05-0.52,1.68-0.41c0.34,0.06,0.68,0.07,1.02,0.05c0.89-0.05,1.64,0.2,2.16,0.99c0.12,0.19,0.29,0.23,0.5,0.23
		c3.39,0.05,6.78,0.11,10.17,0.17c0.13,0,0.28,0.04,0.43-0.22c-4.75-1.17-9.46-2.33-14.22-3.51c0.12-0.26,0.33-0.32,0.5-0.43
		c6.74-4.23,13.48-8.46,20.21-12.7C76.38,11.39,76.86,11.28,76.69,10.97z"/>
</g>
<path class="st4" d="M40.59,60.59c-0.13,0.02-0.16,0.07-0.26,0.17c-0.48,0.44-0.96,0.88-1.41,1.35c-0.52,0.54-1.16,0.89-1.94,1.05
	c-0.2,0.04-0.34,0.21-0.34,0.41l-0.08,3.71c-0.01,0.36,0.39,0.57,0.68,0.36l3.07-2.18c0.06-0.04,0.1-0.09,0.13-0.16h0.3
	c0.03,0.06,0.08,0.11,0.13,0.16l3.07,2.18c0.29,0.21,0.69-0.01,0.68-0.36l-0.08-3.71c0-0.2-0.15-0.37-0.34-0.41
	c-0.78-0.16-1.42-0.52-1.94-1.05c-0.45-0.47-0.93-0.91-1.41-1.35C40.74,60.66,40.71,60.6,40.59,60.59"/>
<defs>
	
		<filter id="Adobe_OpacityMaskFilter_00000103250507681804322460000009714027171242458028_" filterUnits="userSpaceOnUse" x="27.18" y="13" width="26.69" height="17.65">
		<feColorMatrix  type="matrix" values="1 0 0 0 0  0 1 0 0 0  0 0 1 0 0  0 0 0 1 0"/>
	</filter>
</defs>
<mask maskUnits="userSpaceOnUse" x="27.18" y="13" width="26.69" height="17.65" id="SVGID_00000007400802533873441340000012897745313340488103_">
	<g style="filter:url(#Adobe_OpacityMaskFilter_00000103250507681804322460000009714027171242458028_);">
		<g>
			<path class="st1" d="M40.41,29.63c-0.95-1.34-1.32-2.82-1.73-4.27c-0.97-3.42-1.9-6.86-2.89-10.27
				c-0.22-0.77-0.06-1.14,0.74-1.27c0.49-0.08,0.99-0.17,1.43-0.37c2.39-1.05,4.6-0.03,6.84,0.56c0.56,0.15,0.29,0.59,0.2,0.93
				c-0.72,2.63-1.42,5.26-2.19,7.87c-0.59,2.01-0.88,4.13-1.94,5.99C40.73,29.06,40.58,29.32,40.41,29.63z"/>
			<path class="st1" d="M37.29,30.64c-1.88-0.28-3.77-0.55-5.64-0.86c-0.21-0.03-0.4-0.28-0.57-0.46c-1.11-1.09-2.18-2.21-3.32-3.26
				c-0.52-0.48-0.7-0.99-0.49-1.8c3.4,2.07,6.75,4.12,10.1,6.16C37.35,30.49,37.32,30.57,37.29,30.64z"/>
			<path class="st1" d="M43.35,30.45c3.37-2.06,6.75-4.12,10.18-6.21c0.27,0.78,0.1,1.3-0.46,1.79c-0.84,0.73-1.67,1.49-2.41,2.33
				c-0.95,1.08-2.03,1.69-3.51,1.73c-1.25,0.04-2.48,0.35-3.72,0.55C43.4,30.58,43.38,30.52,43.35,30.45z"/>
		</g>
	</g>
</mask>
<linearGradient id="SVGID_00000031888364956521270810000005991954920163378063_" gradientUnits="userSpaceOnUse" x1="-522.2913" y1="211.5959" x2="-522.2913" y2="193.9477" gradientTransform="matrix(1 0 0 1 562.82 -180.95)">
	<stop  offset="0" style="stop-color:#1379F4"/>
	<stop  offset="1" style="stop-color:#00FFFF"/>
</linearGradient>
<path style="mask:url(#SVGID_00000007400802533873441340000012897745313340488103_);fill:url(#SVGID_00000031888364956521270810000005991954920163378063_);" d="
	M33.76,30.64h0.04c0.2,0,0.38,0,0.8,0c0.41,0,0.73,0,0.98,0h9.91c0.24,0,0.58,0,0.98,0c0.43,0,0.6,0,0.8,0h6.61V13.01h-6.61
	c-0.2,0-0.38,0-0.8,0c-0.41,0-0.73,0-0.98,0h-9.91c-0.24,0-0.58,0-0.98,0c-0.43,0-0.6,0-0.8,0h-6.61v17.63H33.76L33.76,30.64z"/>
<path class="st4" d="M46.42,38.26l-1.46-0.81l0.06-2.74c0-0.07,0.05-0.14,0.12-0.18l1.29-0.76c0.11-0.07,0.15-0.19,0.09-0.3
	l-0.96-1.63c-0.08-0.13-0.27-0.17-0.41-0.09l0-0.09l-4.57,2.8l-4.57-2.8l0,0.09c-0.14-0.08-0.34-0.04-0.41,0.09l-0.96,1.63
	c-0.06,0.1-0.02,0.23,0.09,0.3l1.29,0.76c0.07,0.04,0.12,0.11,0.12,0.18l0.06,2.74l-1.46,0.81c-0.08,0.04-0.13,0.12-0.13,0.2
	l0.03,4.33c0,0.19,0.26,0.3,0.44,0.19l1.22-0.72l0.32,14.25c0,0.15,0.08,0.28,0.2,0.37l3.56,2.53c0.05,0.04,0.11,0.06,0.18,0.06
	c0.07,0,0.15-0.02,0.2-0.06l1.13-0.81l2.41-1.72c0.12-0.09,0.2-0.23,0.2-0.37l0.32-14.25l1.22,0.72c0.18,0.11,0.44,0,0.44-0.19
	l0.03-4.33C46.55,38.38,46.5,38.3,46.42,38.26z"/>
<path class="st7" d="M44.46,34.22l-0.33-0.57c-0.04-0.07-0.15-0.1-0.22-0.05l0-0.05l-2.93,1.81c-0.04,0.02-0.06,0.06-0.06,0.1
	l-0.01,0.18c0,0.04-0.03,0.08-0.07,0.11l-0.36,0.21l-0.36-0.21c-0.04-0.02-0.07-0.06-0.07-0.11l-0.01-0.18
	c0-0.04-0.02-0.08-0.06-0.1l-2.93-1.81l0,0.05c-0.08-0.05-0.18-0.02-0.22,0.05l-0.33,0.57c-0.03,0.06-0.01,0.13,0.05,0.17l0.69,0.43
	c0.04,0.02,0.06,0.06,0.06,0.1l0.32,9.32c0.66,0.09,1.21,0.37,1.63,0.84c0.32,0.36,0.66,0.69,1.01,1.02
	c0.07,0.07,0.13,0.15,0.18,0.23l-0.27-7.86l0.31-0.2l0.31,0.2l-0.27,7.86c0.05-0.08,0.11-0.16,0.18-0.23
	c0.34-0.34,0.69-0.67,1.01-1.02c0.42-0.47,0.96-0.75,1.63-0.84l0.32-9.32c0-0.04,0.02-0.08,0.06-0.1l0.69-0.43
	C44.47,34.35,44.49,34.28,44.46,34.22z"/>
<path class="st4" d="M91.11,19.04c0-0.37,0.13-0.7,0.4-1c0.26-0.29,0.61-0.44,1.03-0.44h37.17c0.42,0,0.77,0.15,1.04,0.44
	c0.26,0.29,0.4,0.63,0.4,1v2.55c0,1.01-0.48,1.51-1.43,1.51H92.54c-0.42,0-0.77-0.15-1.03-0.44c-0.27-0.29-0.4-0.65-0.4-1.07V19.04z
	 M107.99,28.91c0-0.42,0.15-0.77,0.44-1.03c0.29-0.26,0.65-0.4,1.07-0.4h3.18c0.42,0,0.77,0.13,1.03,0.4
	c0.26,0.27,0.4,0.61,0.4,1.03v28.34c0,0.43-0.13,0.77-0.4,1.04c-0.27,0.26-0.61,0.4-1.03,0.4h-3.18c-0.42,0-0.78-0.13-1.07-0.4
	c-0.29-0.26-0.44-0.61-0.44-1.04V28.91z"/>
<path class="st4" d="M137.52,26.29c0-0.37,0.13-0.69,0.4-0.96c0.26-0.26,0.58-0.4,0.96-0.4h3.02c0.37,0,0.69,0.13,0.96,0.4
	c0.26,0.27,0.4,0.58,0.4,0.96v31.04c0,0.37-0.13,0.69-0.4,0.96c-0.27,0.26-0.58,0.4-0.96,0.4h-3.02c-0.37,0-0.69-0.13-0.96-0.4
	c-0.27-0.26-0.4-0.58-0.4-0.96V26.29z"/>
<path class="st4" d="M162.51,53.67h24.12c0.37,0,0.69,0.13,0.96,0.4c0.26,0.27,0.4,0.58,0.4,0.96v2.31c0,0.37-0.13,0.69-0.4,0.96
	c-0.27,0.26-0.58,0.4-0.96,0.4h-28.12c-0.37,0-0.68-0.13-0.94-0.4c-0.26-0.26-0.39-0.58-0.39-0.96V26.29c0-0.37,0.13-0.69,0.39-0.96
	c0.26-0.26,0.58-0.4,0.94-0.4h27.8c0.37,0,0.69,0.13,0.96,0.4c0.26,0.27,0.4,0.58,0.4,0.96v2.31c0,0.37-0.13,0.69-0.4,0.95
	c-0.27,0.27-0.58,0.4-0.96,0.4h-23.8V53.67z M166.73,39.98c0-0.37,0.13-0.69,0.4-0.96c0.26-0.26,0.58-0.4,0.96-0.4h16.32
	c0.37,0,0.69,0.13,0.96,0.4c0.26,0.27,0.4,0.58,0.4,0.96v2.31c0,0.43-0.13,0.76-0.4,1c-0.27,0.24-0.58,0.36-0.96,0.36h-16.32
	c-0.37,0-0.69-0.12-0.96-0.36c-0.27-0.24-0.4-0.57-0.4-1V39.98z"/>
<path class="st4" d="M219.74,24.93c1.48,0,2.85,0.27,4.1,0.8c1.25,0.53,2.32,1.26,3.22,2.19s1.62,2,2.15,3.22
	c0.53,1.22,0.8,2.55,0.8,3.98c0,2.55-0.74,4.71-2.23,6.49c-1.49,1.78-3.37,2.93-5.65,3.46l9.07,12.26c0.16,0.27,0.24,0.53,0.24,0.8
	c0,0.37-0.21,0.56-0.64,0.56h-4.38c-0.16,0-0.33-0.05-0.52-0.16c-0.19-0.11-0.33-0.24-0.44-0.4L216,45.39h-6.05
	c-0.37,0-0.69-0.13-0.96-0.4c-0.27-0.26-0.4-0.58-0.4-0.96v-2.07c0-0.37,0.13-0.69,0.4-0.96c0.26-0.26,0.58-0.4,0.96-0.4h9.55
	c1.59,0,2.89-0.5,3.9-1.51c1.01-1.01,1.51-2.31,1.51-3.9c0-1.49-0.53-2.73-1.59-3.74c-1.06-1.01-2.34-1.51-3.82-1.51h-15.12v27.38
	c0,0.37-0.13,0.69-0.4,0.96c-0.27,0.26-0.58,0.4-0.96,0.4h-2.86c-0.37,0-0.69-0.13-0.96-0.4c-0.27-0.26-0.4-0.58-0.4-0.96V26.29
	c0-0.37,0.13-0.69,0.4-0.96c0.26-0.26,0.58-0.4,0.96-0.4H219.74z"/>
<path class="st4" d="M262.96,24.93c1.48,0,2.85,0.27,4.1,0.8c1.25,0.53,2.32,1.26,3.22,2.19c0.9,0.93,1.62,2,2.15,3.22
	c0.53,1.22,0.8,2.55,0.8,3.98c0,2.55-0.74,4.71-2.23,6.49c-1.49,1.78-3.37,2.93-5.65,3.46l9.07,12.26c0.16,0.27,0.24,0.53,0.24,0.8
	c0,0.37-0.21,0.56-0.64,0.56h-4.38c-0.16,0-0.33-0.05-0.52-0.16c-0.19-0.11-0.33-0.24-0.44-0.4l-9.47-12.74h-6.05
	c-0.37,0-0.69-0.13-0.96-0.4c-0.27-0.26-0.4-0.58-0.4-0.96v-2.07c0-0.37,0.13-0.69,0.4-0.96c0.26-0.26,0.58-0.4,0.96-0.4h9.55
	c1.59,0,2.89-0.5,3.9-1.51c1.01-1.01,1.51-2.31,1.51-3.9c0-1.49-0.53-2.73-1.59-3.74c-1.06-1.01-2.34-1.51-3.82-1.51H247.6v27.38
	c0,0.37-0.13,0.69-0.4,0.96c-0.27,0.26-0.58,0.4-0.96,0.4h-2.86c-0.37,0-0.69-0.13-0.96-0.4c-0.27-0.26-0.4-0.58-0.4-0.96V26.29
	c0-0.37,0.13-0.69,0.4-0.96c0.26-0.26,0.58-0.4,0.96-0.4H262.96z"/>
<path class="st4" d="M297.19,26.29c0.16-0.37,0.44-0.69,0.84-0.96c0.4-0.26,0.78-0.4,1.15-0.4h2.86c0.37,0,0.76,0.13,1.15,0.4
	c0.4,0.27,0.7,0.58,0.92,0.96l16.48,31.04c0.11,0.32,0.16,0.53,0.16,0.64c0,0.48-0.27,0.72-0.8,0.72h-3.66
	c-0.58,0-1.06-0.32-1.43-0.96l-3.74-7H295.6c-0.53,0-0.8-0.24-0.8-0.72c0-0.11,0.05-0.32,0.16-0.64l1.27-2.47
	c0.37-0.64,0.85-0.96,1.43-0.96h10.91l-8.04-15.68l-14.01,27.46c-0.11,0.27-0.31,0.49-0.6,0.68c-0.29,0.19-0.57,0.28-0.84,0.28
	h-3.42c-0.53,0-0.8-0.24-0.8-0.72c0-0.11,0.05-0.32,0.16-0.64L297.19,26.29z"/>
<path class="st4" d="M340.23,21.99c0-0.96,0.4-1.92,1.19-2.9c0.8-0.98,1.88-1.47,3.26-1.47h31.2c0.42,0,0.77,0.15,1.03,0.44
	c0.26,0.29,0.4,0.63,0.4,1v2.63c0,0.43-0.13,0.77-0.4,1.03c-0.27,0.27-0.61,0.4-1.03,0.4h-29.45v30.09h30.49
	c0.42,0,0.77,0.13,1.03,0.4c0.26,0.27,0.4,0.61,0.4,1.03v2.63c0,0.37-0.13,0.7-0.4,1c-0.27,0.29-0.61,0.44-1.03,0.44h-32.32
	c-1.27,0-2.32-0.45-3.14-1.35c-0.82-0.9-1.23-1.91-1.23-3.03V21.99z"/>
<path class="st4" d="M397.22,53.67h24.12c0.37,0,0.69,0.13,0.95,0.4c0.26,0.27,0.4,0.58,0.4,0.96v2.31c0,0.37-0.13,0.69-0.4,0.96
	c-0.26,0.26-0.58,0.4-0.95,0.4h-28.12c-0.37,0-0.68-0.13-0.94-0.4c-0.26-0.26-0.39-0.58-0.39-0.96V26.29c0-0.37,0.13-0.69,0.39-0.96
	c0.26-0.26,0.58-0.4,0.94-0.4h27.8c0.37,0,0.69,0.13,0.95,0.4c0.26,0.27,0.4,0.58,0.4,0.96v2.31c0,0.37-0.13,0.69-0.4,0.95
	c-0.26,0.27-0.58,0.4-0.95,0.4h-23.8V53.67z M401.44,39.98c0-0.37,0.13-0.69,0.4-0.96c0.26-0.26,0.58-0.4,0.96-0.4h16.32
	c0.37,0,0.69,0.13,0.96,0.4c0.26,0.27,0.4,0.58,0.4,0.96v2.31c0,0.43-0.13,0.76-0.4,1c-0.27,0.24-0.58,0.36-0.96,0.36h-16.32
	c-0.37,0-0.69-0.12-0.96-0.36c-0.27-0.24-0.4-0.57-0.4-1V39.98z"/>
<path class="st4" d="M454.45,24.93c1.49,0,2.85,0.27,4.1,0.8c1.25,0.53,2.32,1.26,3.22,2.19c0.9,0.93,1.62,2,2.15,3.22
	c0.53,1.22,0.8,2.55,0.8,3.98c0,2.55-0.74,4.71-2.23,6.49c-1.49,1.78-3.37,2.93-5.65,3.46l9.07,12.26c0.16,0.27,0.24,0.53,0.24,0.8
	c0,0.37-0.21,0.56-0.64,0.56h-4.38c-0.16,0-0.33-0.05-0.52-0.16c-0.19-0.11-0.33-0.24-0.44-0.4l-9.47-12.74h-6.05
	c-0.37,0-0.69-0.13-0.96-0.4c-0.26-0.26-0.4-0.58-0.4-0.96v-2.07c0-0.37,0.13-0.69,0.4-0.96s0.58-0.4,0.96-0.4h9.55
	c1.59,0,2.89-0.5,3.9-1.51c1.01-1.01,1.51-2.31,1.51-3.9c0-1.49-0.53-2.73-1.59-3.74c-1.06-1.01-2.33-1.51-3.82-1.51h-15.12v27.38
	c0,0.37-0.13,0.69-0.4,0.96c-0.27,0.26-0.58,0.4-0.96,0.4h-2.87c-0.37,0-0.69-0.13-0.96-0.4c-0.26-0.26-0.4-0.58-0.4-0.96V26.29
	c0-0.37,0.13-0.69,0.4-0.96c0.26-0.26,0.58-0.4,0.96-0.4H454.45z"/>
<path class="st4" d="M476.1,29.95c0-0.58,0.15-1.18,0.44-1.79c0.29-0.61,0.68-1.15,1.15-1.63s1.02-0.86,1.63-1.15
	c0.61-0.29,1.21-0.44,1.79-0.44h25.87c0.64,0,1.25,0.15,1.83,0.44c0.58,0.29,1.11,0.68,1.59,1.15c0.48,0.48,0.86,1.02,1.15,1.63
	c0.29,0.61,0.44,1.21,0.44,1.79v23.72c0,0.58-0.15,1.18-0.44,1.79c-0.29,0.61-0.68,1.15-1.15,1.63c-0.48,0.48-1.01,0.86-1.59,1.15
	c-0.58,0.29-1.19,0.44-1.83,0.44h-25.87c-0.58,0-1.18-0.15-1.79-0.44c-0.61-0.29-1.15-0.68-1.63-1.15
	c-0.48-0.48-0.86-1.02-1.15-1.63c-0.29-0.61-0.44-1.21-0.44-1.79V29.95z M481.59,53.67h24.91V29.95h-24.91V53.67z"/>
</svg>
