<svg id="Capa_1" data-name="Capa 1" xmlns="http://www.w3.org/2000/svg" viewBox="0 0 96 96"><defs><style>.cls-1{fill:#fff;}</style></defs><g id="yVc9L2.tif"><path class="cls-1" d="M86.72,49.36V86.49a2.66,2.66,0,0,0-.21.5,10.74,10.74,0,0,1-3.75,6.49A13.16,13.16,0,0,1,77.21,96H18.79c-.1-.2-.3-.18-.48-.22a10.66,10.66,0,0,1-8.68-8.12c-.14-.46,0-1-.35-1.4V49.81c.46-2.27,1-4.68,2.83-6.12,2-1.56,2-3.25,1.81-5.51C12.69,23.49,20.65,9.45,33.78,3.42,45.46-1.95,56.9-1,67.3,6.41c11.33,8.09,16,19.5,14.65,33.35a2.82,2.82,0,0,0,1.12,3,9.38,9.38,0,0,1,3.4,5.84C86.53,48.88,86.5,49.16,86.72,49.36ZM48,40c6.72,0,13.43,0,20.14,0,.94,0,1.22-.3,1.33-1.16A23.13,23.13,0,0,0,63.5,19.58,21,21,0,0,0,41.06,14,22.83,22.83,0,0,0,26.63,39c.15.92.5,1.06,1.3,1C34.6,40,41.28,40,48,40Zm9.84,23.68a10,10,0,0,0-6.41-9.66,9.78,9.78,0,0,0-8.94,17.21,1.71,1.71,0,0,1,.86,1.64c0,2.07-.06,4.15,0,6.22A4.72,4.72,0,0,0,48.09,84c2.71,0,4.63-2.11,4.65-5.05,0-2.07,0-4.15,0-6.22a1.41,1.41,0,0,1,.69-1.38A9.33,9.33,0,0,0,57.79,63.72Z"/></g></svg>