<?xml version="1.0" encoding="utf-8"?>
<!-- Generator: Adobe Illustrator 26.1.0, SVG Export Plug-In . SVG Version: 6.00 Build 0)  -->
<svg version="1.1" id="Capa_1" xmlns="http://www.w3.org/2000/svg" xmlns:xlink="http://www.w3.org/1999/xlink" x="0px" y="0px"
	 viewBox="0 0 256 75.97" style="enable-background:new 0 0 256 75.97;" xml:space="preserve">
<style type="text/css">
	.st0{fill:#A6A6A6;}
	.st1{fill:#FFFFFF;}
	.st2{fill:#00C1FF;}
	.st3{fill:url(#SVGID_1_);}
	.st4{fill:url(#SVGID_00000016773294778894513810000011277099037899358639_);}
	.st5{fill:url(#SVGID_00000176747760463100089150000010192046052419279272_);}
	.st6{fill:url(#SVGID_00000068651824612647764320000001327052029877267590_);}
	.st7{fill:url(#SVGID_00000155122337118788934710000000007211150851233957_);}
	.st8{fill:url(#SVGID_00000124880275845962472440000014642067948299355804_);}
	.st9{fill:url(#SVGID_00000092420381860258777930000005757000877390262192_);}
	.st10{fill:url(#SVGID_00000008136972959027749570000000682029624260810685_);}
	.st11{fill:url(#SVGID_00000162347444824649422700000010939659674768188335_);}
	.st12{fill:url(#SVGID_00000180368865907764152560000007807612984998420667_);}
</style>
<g>
	<path d="M246.52,75.97H9.48C4.27,75.97,0,71.7,0,66.48V9.5C0,4.27,4.27,0,9.48,0h237.04c5.21,0,9.48,4.27,9.48,9.5v56.98
		C256,71.7,251.73,75.97,246.52,75.97"/>
	<path class="st0" d="M246.52,0H9.48C4.27,0,0,4.27,0,9.5v56.98c0,5.22,4.27,9.5,9.48,9.5h237.04c5.21,0,9.48-4.27,9.48-9.5V9.5
		C256,4.27,251.73,0,246.52,0 M246.52,1.52c4.39,0,7.96,3.58,7.96,7.98v56.98c0,4.4-3.57,7.98-7.96,7.98H9.48
		c-4.39,0-7.96-3.58-7.96-7.98V9.5c0-4.4,3.57-7.98,7.96-7.98L246.52,1.52"/>
	<path class="st1" d="M89.92,19.46c0,1.59-0.47,2.86-1.41,3.8c-1.07,1.12-2.47,1.69-4.18,1.69c-1.64,0-3.04-0.57-4.19-1.71
		c-1.15-1.14-1.72-2.55-1.72-4.24c0-1.69,0.57-3.1,1.72-4.24c1.15-1.14,2.54-1.71,4.19-1.71c0.81,0,1.59,0.16,2.34,0.48
		c0.74,0.32,1.33,0.74,1.78,1.27l-1,1c-0.75-0.9-1.79-1.35-3.11-1.35c-1.2,0-2.23,0.42-3.11,1.27c-0.87,0.84-1.31,1.94-1.31,3.29
		c0,1.35,0.44,2.44,1.31,3.29c0.87,0.84,1.91,1.26,3.11,1.26c1.27,0,2.33-0.42,3.18-1.27c0.55-0.55,0.87-1.32,0.95-2.31h-4.13V18.6
		h5.51C89.89,18.89,89.92,19.18,89.92,19.46"/>
	<path class="st1" d="M89.92,19.46h-0.19c0,1.56-0.45,2.76-1.36,3.67l0,0l0,0c-1.04,1.09-2.37,1.63-4.04,1.63
		c-1.6,0-2.94-0.55-4.05-1.66c-1.11-1.11-1.67-2.46-1.67-4.11c0-1.64,0.55-3,1.67-4.11c1.12-1.11,2.46-1.65,4.05-1.66
		c0.79,0,1.54,0.15,2.26,0.46c0.72,0.31,1.29,0.72,1.71,1.22l0.15-0.12l-0.13-0.13l-1,1l0.13,0.13l0.15-0.12
		c-0.79-0.95-1.89-1.42-3.26-1.42c-1.24,0-2.33,0.44-3.24,1.32c-0.91,0.88-1.37,2.04-1.37,3.42c0,1.39,0.46,2.54,1.37,3.42
		c0.9,0.88,2,1.32,3.24,1.32c1.31,0,2.43-0.44,3.31-1.33c0.59-0.59,0.92-1.41,1.01-2.43l0.02-0.21h-4.15v-0.99h5.32V18.6l-0.19,0.03
		c0.05,0.29,0.08,0.56,0.08,0.83h0.38c0-0.29-0.03-0.59-0.08-0.89L90,18.41h-5.86v1.75h4.32v-0.19l-0.19-0.02
		c-0.08,0.96-0.39,1.68-0.9,2.19c-0.81,0.81-1.81,1.21-3.04,1.22c-1.15,0-2.13-0.4-2.98-1.21c-0.84-0.81-1.25-1.84-1.25-3.15
		c0-1.31,0.42-2.34,1.25-3.15c0.84-0.81,1.82-1.21,2.98-1.21c1.28,0,2.25,0.43,2.97,1.28l0.13,0.16l1.15-1.15l0.12-0.12l-0.11-0.13
		c-0.47-0.56-1.09-1-1.85-1.33c-0.76-0.33-1.57-0.49-2.41-0.49c-1.69,0-3.14,0.59-4.32,1.77c-1.18,1.17-1.78,2.65-1.78,4.38
		c0,1.73,0.6,3.2,1.78,4.38c1.18,1.17,2.63,1.77,4.32,1.77c1.76,0,3.21-0.58,4.32-1.75l-0.14-0.13l0.13,0.13
		c0.98-0.98,1.47-2.31,1.47-3.94L89.92,19.46 M98.66,14.7h-5.18v3.61h4.67v1.37h-4.67v3.61h5.18v1.4h-6.64V13.3h6.64V14.7"/>
	<path class="st1" d="M98.66,14.7v-0.19h-5.37v3.99h4.67v0.99l-4.67,0v3.99h5.18v1.02h-6.26V13.49h6.26v1.21L98.66,14.7v-0.19V14.7
		l0.19,0v-1.59h-7.02v11.78h7.02V23.1h-5.18v-3.23h4.67v-1.75h-4.67v-3.23h5.18V14.7L98.66,14.7 M104.83,24.69h-1.46v-10h-3.18v-1.4
		H108v1.4h-3.18V24.69"/>
	<path class="st1" d="M104.83,24.69V24.5h-1.27v-10h-3.18v-1.02h7.44v1.02h-3.18v10.19L104.83,24.69l0-0.19L104.83,24.69l0.19,0
		v-9.81h3.18v-1.78h-8.2v1.78h3.18v10h1.84v-0.19L104.83,24.69 M113.66,24.69V13.3h1.46v11.4L113.66,24.69"/>
	<path class="st1" d="M113.66,24.69h0.19V13.49h1.08V24.5h-1.27V24.69l0.19,0L113.66,24.69v0.19h1.65V13.11h-1.84v11.78h0.19V24.69
		 M121.61,24.69h-1.46v-10h-3.18v-1.4h7.82v1.4h-3.18V24.69"/>
	<path class="st1" d="M121.61,24.69V24.5h-1.27v-10h-3.18v-1.02h7.44v1.02h-3.18v10.19L121.61,24.69l0-0.19L121.61,24.69l0.19,0
		v-9.81h3.18v-1.78h-8.2v1.78h3.18v10h1.84v-0.19L121.61,24.69 M132.32,22.26c0.84,0.85,1.87,1.28,3.09,1.28
		c1.22,0,2.25-0.43,3.09-1.28c0.84-0.85,1.27-1.95,1.27-3.27c0-1.33-0.42-2.42-1.27-3.27c-0.84-0.85-1.87-1.28-3.09-1.28
		c-1.22,0-2.25,0.43-3.09,1.28c-0.84,0.85-1.26,1.95-1.26,3.27S131.48,21.41,132.32,22.26z M139.59,23.22
		c-1.12,1.15-2.51,1.73-4.17,1.73c-1.66,0-3.05-0.58-4.17-1.73c-1.12-1.15-1.68-2.56-1.68-4.23c0-1.67,0.56-3.07,1.68-4.23
		c1.12-1.15,2.51-1.73,4.17-1.73c1.65,0,3.04,0.58,4.16,1.74c1.12,1.16,1.68,2.56,1.68,4.22C141.26,20.66,140.7,22.07,139.59,23.22z
		"/>
	<path class="st1" d="M132.32,22.26l-0.13,0.13c0.87,0.89,1.96,1.34,3.23,1.34c1.26,0,2.35-0.45,3.23-1.34
		c0.88-0.89,1.32-2.04,1.32-3.4c0-1.37-0.44-2.52-1.32-3.4c-0.87-0.89-1.96-1.34-3.23-1.34c-1.26,0-2.35,0.45-3.23,1.34
		c-0.88,0.89-1.32,2.04-1.32,3.4c0,1.37,0.44,2.52,1.32,3.4L132.32,22.26l0.13-0.13c-0.8-0.82-1.21-1.85-1.21-3.14
		c0-1.29,0.4-2.32,1.21-3.14c0.81-0.82,1.78-1.22,2.96-1.22c1.17,0,2.15,0.4,2.96,1.22c0.81,0.82,1.21,1.85,1.21,3.14
		c0,1.29-0.4,2.32-1.21,3.14c-0.81,0.82-1.78,1.22-2.96,1.22c-1.17,0-2.14-0.4-2.96-1.22L132.32,22.26z M139.59,23.22l-0.14-0.13
		c-1.09,1.12-2.42,1.67-4.04,1.67c-1.62,0-2.95-0.55-4.03-1.67l-0.01-0.01l0.01,0.01c-1.09-1.12-1.62-2.47-1.62-4.09
		c0-1.62,0.54-2.97,1.62-4.09c1.09-1.12,2.41-1.67,4.03-1.67c1.61,0,2.94,0.56,4.03,1.68c1.09,1.12,1.63,2.47,1.63,4.09
		c0,1.62-0.54,2.97-1.62,4.09L139.59,23.22l0.14,0.13c1.15-1.18,1.73-2.65,1.73-4.36c0-1.7-0.58-3.16-1.74-4.35
		c-1.16-1.19-2.6-1.8-4.3-1.79c-1.71,0-3.16,0.6-4.31,1.79v0c-1.15,1.18-1.73,2.65-1.73,4.36c0,1.71,0.58,3.17,1.73,4.36l0.01,0.01
		l-0.01-0.01c1.15,1.19,2.6,1.79,4.31,1.79c1.71,0,3.16-0.6,4.31-1.79L139.59,23.22z M143.31,24.69V13.3h1.78l5.53,8.87h0.06
		l-0.06-2.2V13.3h1.46v11.4h-1.53l-5.79-9.3h-0.06l0.06,2.2v7.1L143.31,24.69"/>
	<path class="st1" d="M143.31,24.69h0.19V13.49h1.48l5.53,8.87h0.36l-0.07-2.39v-6.48h1.08V24.5h-1.23l-5.79-9.3h-0.36l0.07,2.39
		v6.91h-1.27L143.31,24.69l0.19,0L143.31,24.69l0,0.19h1.65v-7.29l-0.06-2.2l-0.19,0.01v0.19h0.06V15.4l-0.16,0.1l5.84,9.38h1.82
		V13.11h-1.84v6.86l0.06,2.2l0.19-0.01v-0.19h-0.06v0.19l0.16-0.1l-5.59-8.95h-2.07v11.78h0.19L143.31,24.69 M202.78,56.98h3.54
		V33.24h-3.54L202.78,56.98z M234.65,41.79l-4.06,10.29h-0.12l-4.21-10.29h-3.81l6.31,14.39l-3.6,8h3.69l9.73-22.39L234.65,41.79z
		 M214.59,54.28c-1.16,0-2.78-0.58-2.78-2.02c0-1.83,2.01-2.54,3.75-2.54c1.56,0,2.29,0.34,3.23,0.79
		C218.52,52.73,216.63,54.28,214.59,54.28L214.59,54.28z M215.01,41.27c-2.56,0-5.21,1.13-6.31,3.64l3.14,1.31
		c0.67-1.31,1.92-1.74,3.23-1.74c1.83,0,3.69,1.1,3.72,3.06v0.24c-0.64-0.37-2.01-0.92-3.69-0.92c-3.38,0-6.83,1.86-6.83,5.35
		c0,3.18,2.78,5.22,5.89,5.22c2.38,0,3.69-1.07,4.52-2.32h0.12v1.83h3.42v-9.1C222.21,43.62,219.07,41.27,215.01,41.27L215.01,41.27
		z M193.15,44.68h-5.03v-8.14h5.03c2.65,0,4.15,2.19,4.15,4.07C197.29,42.45,195.79,44.68,193.15,44.68z M193.05,33.24h-8.48v23.74
		h3.54v-9h4.94c3.92,0,7.78-2.84,7.78-7.37C200.83,36.08,196.98,33.24,193.05,33.24L193.05,33.24z M146.82,54.29
		c-2.44,0-4.49-2.05-4.49-4.87c0-2.85,2.05-4.93,4.49-4.93c2.41,0,4.31,2.08,4.31,4.93C151.13,52.24,149.23,54.29,146.82,54.29
		L146.82,54.29z M150.88,43.12h-0.12c-0.79-0.95-2.32-1.81-4.25-1.81c-4.03,0-7.73,3.55-7.73,8.11c0,4.53,3.7,8.05,7.73,8.05
		c1.92,0,3.45-0.86,4.25-1.84h0.12v1.16c0,3.09-1.65,4.74-4.31,4.74c-2.17,0-3.51-1.56-4.06-2.88l-3.08,1.29
		c0.89,2.14,3.24,4.77,7.15,4.77c4.15,0,7.67-2.45,7.67-8.42V41.8h-3.36L150.88,43.12z M156.69,56.98h3.54V33.24h-3.54V56.98z
		 M165.46,49.15c-0.09-3.12,2.41-4.71,4.22-4.71c1.41,0,2.6,0.7,2.99,1.71L165.46,49.15z M176.45,46.45
		c-0.67-1.81-2.72-5.14-6.9-5.14c-4.15,0-7.61,3.27-7.61,8.08c0,4.53,3.42,8.08,8,8.08c3.7,0,5.84-2.26,6.72-3.58l-2.75-1.84
		c-0.92,1.35-2.17,2.23-3.97,2.23c-1.8,0-3.09-0.83-3.91-2.45l10.78-4.47L176.45,46.45z M90.54,43.79v3.43h8.19
		c-0.24,1.93-0.89,3.34-1.86,4.31c-1.19,1.19-3.05,2.51-6.32,2.51c-5.04,0-8.98-4.07-8.98-9.12c0-5.05,3.94-9.12,8.98-9.12
		c2.72,0,4.7,1.07,6.17,2.45l2.41-2.42c-2.05-1.96-4.77-3.46-8.58-3.46c-6.9,0-12.71,5.63-12.71,12.55c0,6.92,5.8,12.55,12.71,12.55
		c3.73,0,6.54-1.22,8.74-3.52c2.26-2.26,2.96-5.45,2.96-8.02c0-0.8-0.06-1.53-0.18-2.14L90.54,43.79z M111.55,54.29
		c-2.44,0-4.55-2.02-4.55-4.9c0-2.91,2.11-4.9,4.55-4.9c2.44,0,4.55,1.99,4.55,4.9C116.1,52.27,113.99,54.29,111.55,54.29z
		 M111.55,41.31c-4.46,0-8.1,3.4-8.1,8.08c0,4.65,3.64,8.08,8.1,8.08c4.46,0,8.1-3.43,8.1-8.08
		C119.64,44.71,116.01,41.31,111.55,41.31z M129.21,54.29c-2.44,0-4.55-2.02-4.55-4.9c0-2.91,2.11-4.9,4.55-4.9
		c2.44,0,4.55,1.99,4.55,4.9C133.76,52.27,131.65,54.29,129.21,54.29L129.21,54.29z M129.21,41.31c-4.46,0-8.1,3.4-8.1,8.08
		c0,4.65,3.63,8.08,8.1,8.08c4.46,0,8.1-3.43,8.1-8.08C137.3,44.71,133.67,41.31,129.21,41.31L129.21,41.31z"/>
	<path class="st2" d="M19.93,14.46c-0.64,0.58-1.02,1.53-1.02,2.81v-0.29v42.02v-0.28c0,1.18,0.33,2.08,0.88,2.67l0.14,0.14v0
		c0.45,0.4,1.02,0.62,1.68,0.62c0.64,0,1.36-0.2,2.12-0.64l27.53-15.66l9.45-5.38c1.2-0.68,1.87-1.56,1.99-2.46v0
		c-0.11-0.9-0.79-1.78-1.99-2.46l-9.46-5.38L23.73,14.48c-0.76-0.43-1.49-0.64-2.13-0.64C20.95,13.84,20.37,14.05,19.93,14.46
		L19.93,14.46z"/>
	
		<linearGradient id="SVGID_1_" gradientUnits="userSpaceOnUse" x1="968.1082" y1="-466.7593" x2="929.2463" y2="-392.021" gradientTransform="matrix(0.2221 0 0 0.4265 -181.0038 215.7299)">
		<stop  offset="0" style="stop-color:#00A0FF"/>
		<stop  offset="6.569999e-03" style="stop-color:#00A1FF"/>
		<stop  offset="0.2601" style="stop-color:#00BEFF"/>
		<stop  offset="0.5122" style="stop-color:#00D2FF"/>
		<stop  offset="0.7604" style="stop-color:#00DFFF"/>
		<stop  offset="1" style="stop-color:#00E3FF"/>
	</linearGradient>
	<path class="st3" d="M19.93,61.52l-0.14-0.14c-0.55-0.58-0.88-1.49-0.88-2.67v0.28V16.99v0.28c0-1.27,0.38-2.23,1.02-2.81
		l23.49,23.53L19.93,61.52"/>
	
		<linearGradient id="SVGID_00000031208097624396052260000008565270309313584314_" gradientUnits="userSpaceOnUse" x1="488.0223" y1="-482.996" x2="353.5142" y2="-482.996" gradientTransform="matrix(0.3411 0 0 0.2777 -102.3188 172.1259)">
		<stop  offset="0" style="stop-color:#FFE000"/>
		<stop  offset="0.4087" style="stop-color:#FFBD00"/>
		<stop  offset="0.7754" style="stop-color:#FFA500"/>
		<stop  offset="1" style="stop-color:#FF9C00"/>
	</linearGradient>
	<path style="fill:url(#SVGID_00000031208097624396052260000008565270309313584314_);" d="M51.25,45.84l-7.83-7.85l7.83-7.85
		l9.46,5.38c1.2,0.68,1.87,1.56,1.99,2.46v0c-0.11,0.9-0.79,1.78-1.99,2.46L51.25,45.84"/>
	
		<linearGradient id="SVGID_00000096032346535240931700000006883209506545531779_" gradientUnits="userSpaceOnUse" x1="663.7269" y1="-695.8447" x2="541.1246" y2="-601.8708" gradientTransform="matrix(0.3506 0 0 0.2702 -187.7056 231.3592)">
		<stop  offset="0" style="stop-color:#FF3A44"/>
		<stop  offset="1" style="stop-color:#C31162"/>
	</linearGradient>
	<path style="fill:url(#SVGID_00000096032346535240931700000006883209506545531779_);" d="M21.61,62.14c-0.66,0-1.23-0.21-1.68-0.62
		v0l23.49-23.53l7.83,7.85L23.73,61.5C22.97,61.93,22.25,62.14,21.61,62.14"/>
	
		<linearGradient id="SVGID_00000134958787172455077840000017137962048395376060_" gradientUnits="userSpaceOnUse" x1="568.9252" y1="-486.3213" x2="623.5874" y2="-444.3593" gradientTransform="matrix(0.3506 0 0 0.2702 -187.6381 144.4661)">
		<stop  offset="0" style="stop-color:#32A071"/>
		<stop  offset="0.0685" style="stop-color:#2DA771"/>
		<stop  offset="0.4762" style="stop-color:#15CF74"/>
		<stop  offset="0.8009" style="stop-color:#06E775"/>
		<stop  offset="1" style="stop-color:#00F076"/>
	</linearGradient>
	<path style="fill:url(#SVGID_00000134958787172455077840000017137962048395376060_);" d="M43.42,37.99L19.93,14.46
		c0.45-0.4,1.02-0.62,1.67-0.62c0.64,0,1.37,0.21,2.13,0.64l27.52,15.66L43.42,37.99"/>
	
		<linearGradient id="SVGID_00000038383565261537999580000016189985525688852627_" gradientUnits="userSpaceOnUse" x1="591.4984" y1="-303.3443" x2="591.4984" y2="-303.3443" gradientTransform="matrix(0.3506 0 0 0.2702 -187.6381 144.4661)">
		<stop  offset="0" style="stop-color:#32A071"/>
		<stop  offset="0.0685" style="stop-color:#2DA771"/>
		<stop  offset="0.4762" style="stop-color:#15CF74"/>
		<stop  offset="0.8009" style="stop-color:#06E775"/>
		<stop  offset="1" style="stop-color:#00F076"/>
	</linearGradient>
	<path style="fill:url(#SVGID_00000038383565261537999580000016189985525688852627_);" d="M19.72,62.49"/>
	
		<linearGradient id="SVGID_00000180336587830664466070000014859569028257712258_" gradientUnits="userSpaceOnUse" x1="1116.3978" y1="-361.5234" x2="1095.3749" y2="-300.6255" gradientTransform="matrix(0.181 0 0 0.5234 -177.7131 208.0797)">
		<stop  offset="0" style="stop-color:#008DE0"/>
		<stop  offset="6.569999e-03" style="stop-color:#008DE0"/>
		<stop  offset="0.2601" style="stop-color:#00A7E0"/>
		<stop  offset="0.5122" style="stop-color:#00B8E0"/>
		<stop  offset="0.7604" style="stop-color:#00C4E0"/>
		<stop  offset="1" style="stop-color:#00C7E0"/>
	</linearGradient>
	<path style="fill:url(#SVGID_00000180336587830664466070000014859569028257712258_);" d="M19.79,61.66
		c-0.55-0.58-0.88-1.49-0.88-2.67v-0.28c0,1.18,0.33,2.08,0.88,2.67l0.14,0.14L19.79,61.66"/>
	
		<linearGradient id="SVGID_00000020368367989912665260000009924542794673337744_" gradientUnits="userSpaceOnUse" x1="381.7442" y1="-513.4252" x2="256.9341" y2="-513.4252" gradientTransform="matrix(0.3676 0 0 0.2577 -76.1832 174.3093)">
		<stop  offset="0" style="stop-color:#E0C500"/>
		<stop  offset="0.4087" style="stop-color:#E0A600"/>
		<stop  offset="0.7754" style="stop-color:#E09100"/>
		<stop  offset="1" style="stop-color:#E08900"/>
	</linearGradient>
	<path style="fill:url(#SVGID_00000020368367989912665260000009924542794673337744_);" d="M51.43,46.01l-0.18-0.18l9.45-5.38
		c1.2-0.68,1.87-1.56,1.99-2.46c0,0.33-0.07,0.66-0.22,0.98c-0.29,0.65-0.88,1.26-1.77,1.76L51.43,46.01"/>
	
		<linearGradient id="SVGID_00000182491890915144720940000004550776721922006921_" gradientUnits="userSpaceOnUse" x1="381.7492" y1="-432.9377" x2="256.9375" y2="-432.9377" gradientTransform="matrix(0.3676 0 0 0.2577 -76.1827 145.5449)">
		<stop  offset="0" style="stop-color:#FFE840"/>
		<stop  offset="0.4087" style="stop-color:#FFCE40"/>
		<stop  offset="0.7754" style="stop-color:#FFBC40"/>
		<stop  offset="1" style="stop-color:#FFB540"/>
	</linearGradient>
	<path style="fill:url(#SVGID_00000182491890915144720940000004550776721922006921_);" d="M62.7,37.99
		c-0.11-0.9-0.79-1.78-1.99-2.46l-9.46-5.38l0.18-0.18h0l9.28,5.28C62.03,36,62.7,36.99,62.7,37.99"/>
	
		<linearGradient id="SVGID_00000151544571252403614120000018133087784750069418_" gradientUnits="userSpaceOnUse" x1="1091.5833" y1="-64.3076" x2="1070.6782" y2="-6.2154" gradientTransform="matrix(0.1807 0 0 0.5242 -177.6931 47.7589)">
		<stop  offset="0" style="stop-color:#40B8FF"/>
		<stop  offset="6.569999e-03" style="stop-color:#40B9FF"/>
		<stop  offset="0.2601" style="stop-color:#40CEFF"/>
		<stop  offset="0.5122" style="stop-color:#40DDFF"/>
		<stop  offset="0.7604" style="stop-color:#40E7FF"/>
		<stop  offset="1" style="stop-color:#40EAFF"/>
	</linearGradient>
	<path style="fill:url(#SVGID_00000151544571252403614120000018133087784750069418_);" d="M18.91,17.26v-0.29
		c0-0.1,0-0.21,0.01-0.31v0c0,0,0,0,0,0v-0.01c0.06-1.01,0.37-1.8,0.87-2.33l0.14,0.14C19.29,15.03,18.91,15.99,18.91,17.26"/>
	
		<linearGradient id="SVGID_00000129182869459081984050000013278670586736284813_" gradientUnits="userSpaceOnUse" x1="1092.2357" y1="-33.4995" x2="1092.2357" y2="-33.4995" gradientTransform="matrix(0.1807 0 0 0.5242 -177.6931 47.7589)">
		<stop  offset="0" style="stop-color:#40B8FF"/>
		<stop  offset="6.569999e-03" style="stop-color:#40B9FF"/>
		<stop  offset="0.2601" style="stop-color:#40CEFF"/>
		<stop  offset="0.5122" style="stop-color:#40DDFF"/>
		<stop  offset="0.7604" style="stop-color:#40E7FF"/>
		<stop  offset="1" style="stop-color:#40EAFF"/>
	</linearGradient>
	<path style="fill:url(#SVGID_00000129182869459081984050000013278670586736284813_);" d="M19.72,30.2"/>
</g>
</svg>
