<?xml version="1.0" encoding="utf-8"?>
<!-- Generator: Adobe Illustrator 27.0.1, SVG Export Plug-In . SVG Version: 6.00 Build 0)  -->
<svg version="1.1" id="Capa_1" xmlns="http://www.w3.org/2000/svg" xmlns:xlink="http://www.w3.org/1999/xlink" x="0px" y="0px"
	 viewBox="0 0 512 512" style="enable-background:new 0 0 512 512;" xml:space="preserve">
<style type="text/css">
	.st0{fill:#0E1B28;}
	.st1{filter:url(#Adobe_OpacityMaskFilter);}
	.st2{fill:#FFFFFF;}
	.st3{mask:url(#SVGID_00000028288911488477863070000014540160574710635405_);fill:url(#SVGID_1_);}
	.st4{fill:url(#SVGID_00000015345841788499780600000006084061138331658427_);}
	.st5{fill:url(#SVGID_00000092453450365952486390000015684371455260115634_);}
	.st6{fill:url(#SVGID_00000113318726021709952320000014632792537727955858_);}
	.st7{fill:url(#SVGID_00000106857735226128375710000010545399874263095955_);}
	.st8{fill:#22668C;stroke:#22668C;stroke-width:7;stroke-miterlimit:10;}
</style>
<g>
	<path class="st0" d="M391.5,511.5c66.8,0,121-54.1,121-120.9V120.4c0-66.8-54.2-120.9-121-120.9h-270c-66.8,0-121,54.1-121,120.9
		v270.3c0,66.8,54.2,120.9,121,120.9L391.5,511.5L391.5,511.5z"/>
	<defs>
		<filter id="Adobe_OpacityMaskFilter" filterUnits="userSpaceOnUse" x="12.6" y="11.9" width="488" height="487.4">
			<feColorMatrix  type="matrix" values="1 0 0 0 0  0 1 0 0 0  0 0 1 0 0  0 0 0 1 0"/>
		</filter>
	</defs>
	
		<mask maskUnits="userSpaceOnUse" x="12.6" y="11.9" width="488" height="487.4" id="SVGID_00000028288911488477863070000014540160574710635405_">
		<g class="st1">
			<g>
				<path class="st2" d="M450.1,107.2c-3.6,2.3-7.2,4.5-10.9,6.8c30.5,39.1,48.6,88.3,48.6,141.7c0,127.6-103.5,231-231.2,231
					S25.4,383.2,25.4,255.6c0-53.5,18.2-102.7,48.8-141.9c-3.6-2.3-7.2-4.5-10.9-6.8c-31.8,41.1-50.7,92.7-50.7,148.7
					c0,134.6,109.2,243.7,244,243.7s244-109.1,244-243.7C500.6,199.8,481.8,148.3,450.1,107.2z"/>
				<path class="st2" d="M94.2,91.2c41.8-41.2,99.1-66.6,162.4-66.6c63.4,0,120.8,25.5,162.5,66.7c4.1-1.8,8.3-3.7,12.5-5.6
					c-44.3-45.6-106.3-73.9-175-73.9c-68.6,0-130.5,28.3-174.8,73.7C85.9,87.5,90.1,89.4,94.2,91.2z"/>
			</g>
		</g>
	</mask>
	
		<linearGradient id="SVGID_1_" gradientUnits="userSpaceOnUse" x1="256.61" y1="12.64" x2="256.61" y2="500.08" gradientTransform="matrix(1 0 0 -1 0 512)">
		<stop  offset="0" style="stop-color:#1379F4"/>
		<stop  offset="1" style="stop-color:#00FFFF"/>
	</linearGradient>
	<path class="st3" d="M256.6,11.9c-134.8,0-244,109.1-244,243.7s109.2,243.7,244,243.7s244-109.1,244-243.7S391.4,11.9,256.6,11.9z
		 M256.6,486.6c-127.7,0-231.2-103.4-231.2-231s103.5-231,231.2-231s231.2,103.4,231.2,231S384.3,486.6,256.6,486.6z"/>
	
		<linearGradient id="SVGID_00000128480393652993881520000010932986652414541754_" gradientUnits="userSpaceOnUse" x1="232.2792" y1="109.7077" x2="280.9605" y2="109.7077" gradientTransform="matrix(1 0 0 -1 0 512)">
		<stop  offset="0" style="stop-color:#1379F4"/>
		<stop  offset="1" style="stop-color:#00FFFF"/>
	</linearGradient>
	<path style="fill:url(#SVGID_00000128480393652993881520000010932986652414541754_);" d="M278.4,392.2c-2.7-0.6-5.2-1.6-7.4-2.9
		c1-3.8,2-7.5,3.1-11.2c0.4-1.3,1.4-3-0.8-3.5c-8.5-2.2-16.9-6.1-26-2.1c-1.7,0.8-3.6,1.1-5.4,1.4c-3,0.5-3.7,1.9-2.8,4.8
		c1,3.6,2.1,7.2,3.1,10.8c-2.2,1.3-4.6,2.2-7.2,2.8c-1.2,0.2-2.1,1.3-2.1,2.5l-0.5,22.4c-0.1,2.1,2.4,3.4,4.1,2.2l11.7-8.3
		c0.6,2.2,1.2,4.5,1.9,6.7c1.6,5.5,3,11.1,6.6,16.2c0.6-1.2,1.2-2.2,1.8-3.2c3.5-6.2,4.8-13.1,6.6-19.9l11.9,8.5
		c1.8,1.2,4.2,0,4.1-2.2l-0.5-22.4C280.4,393.5,279.5,392.5,278.4,392.2z"/>
	
		<linearGradient id="SVGID_00000082347132068121430790000009609415350388567171_" gradientUnits="userSpaceOnUse" x1="255.6063" y1="321.67" x2="255.6063" y2="421.8166" gradientTransform="matrix(1 0 0 -1 0 512)">
		<stop  offset="0" style="stop-color:#1379F4"/>
		<stop  offset="1" style="stop-color:#00FFFF"/>
	</linearGradient>
	<path style="fill:url(#SVGID_00000082347132068121430790000009609415350388567171_);" d="M245.1,164.6c2.5,8.7,4.7,17.6,10.4,25.7
		c1-1.9,1.9-3.4,2.8-5c6.4-11.2,8.1-23.9,11.7-36.1c4.6-15.7,8.8-31.6,13.2-47.4c0.5-2,2.1-4.7-1.2-5.6c-13.5-3.5-26.8-9.7-41.2-3.4
		c-2.7,1.2-5.7,1.8-8.6,2.2c-4.8,0.8-5.8,3-4.5,7.6C233.6,123.3,239.2,144,245.1,164.6z"/>
	
		<linearGradient id="SVGID_00000054973570169710134100000016894998046106438802_" gradientUnits="userSpaceOnUse" x1="206.532" y1="315.61" x2="206.532" y2="354.01" gradientTransform="matrix(1 0 0 -1 0 512)">
		<stop  offset="0" style="stop-color:#1379F4"/>
		<stop  offset="1" style="stop-color:#00FFFF"/>
	</linearGradient>
	<path style="fill:url(#SVGID_00000054973570169710134100000016894998046106438802_);" d="M237.2,195.1
		c-20.2-12.3-40.4-24.6-60.9-37.1c-1.3,4.9-0.2,7.9,2.9,10.8c6.9,6.4,13.4,13.1,20,19.6c1.1,1,2.2,2.5,3.4,2.7
		c11.3,1.9,22.7,3.5,34,5.2C236.9,195.9,237.1,195.5,237.2,195.1z"/>
	
		<linearGradient id="SVGID_00000071530636583477433000000013348456261001758903_" gradientUnits="userSpaceOnUse" x1="304.3368" y1="315.57" x2="304.3368" y2="354.1" gradientTransform="matrix(1 0 0 -1 0 512)">
		<stop  offset="0" style="stop-color:#1379F4"/>
		<stop  offset="1" style="stop-color:#00FFFF"/>
	</linearGradient>
	<path style="fill:url(#SVGID_00000071530636583477433000000013348456261001758903_);" d="M334.6,157.9c-20.7,12.6-41,25-61.3,37.4
		c0.1,0.4,0.3,0.8,0.4,1.2c7.5-1.2,14.9-3.1,22.5-3.3c9-0.3,15.5-3.9,21.2-10.4c4.4-5,9.5-9.6,14.5-14
		C335.2,165.7,336.2,162.6,334.6,157.9z"/>
	<g>
		<path class="st8" d="M172,161.7c-0.1-3.1,1.1-5.9,1.8-9c0.3-1.5,1.1-0.5,1.6-0.2c8.2,4.9,16.3,9.9,24.5,14.9
			c2.9,1.8,5.8,3.5,8.8,5.3c10.9-2,21.8-4.1,32.9-6.2c-0.8-1.2-1.8-1.4-2.6-1.8c-15.8-7.2-31.6-14.4-47.4-21.6
			c-7-3.1-13.6-7.2-21.6-7.3c-1,0-2-0.7-3-1.1c-41.5-18.6-83.1-37.2-124.6-55.7c-1.5-0.7-3.7-2.7-4.6-1.2c-1,1.8,1.9,2.5,3.3,3.4
			c40.6,25.5,81.2,51,121.8,76.5c1,0.6,2.3,1,3,2.6c-28.7,7.1-57.1,14.1-85.7,21.1c1,1.6,1.8,1.3,2.6,1.3c20.4-0.3,40.9-0.7,61.3-1
			c1.3,0,2.3-0.3,3-1.4c3.2-4.9,7.8-6.3,13.4-5.9c2,0.1,4-0.1,6-0.4c3.7-0.6,6.9,0.2,9.9,2.5c3.2,2.4,6.8,4.2,10,6.6
			c0.9,0.6,1.6,0.8,2.3,0.8c-3.9-3.8-7.7-7.7-11.6-11.4C173.9,169.6,171.8,166.2,172,161.7z M217.2,166.1c-1.1,0.1-2.2,0-3.2-0.2
			L217.2,166.1z"/>
		<path class="st8" d="M474.2,78c-0.9-1.6-3.1,0.5-4.6,1.2c-41.5,18.5-83.1,37.1-124.6,55.7c-1,0.4-2,1.1-3,1.1
			c-8,0.1-14.7,4.1-21.6,7.3c-15.8,7.2-31.6,14.4-47.4,21.6c-0.8,0.4-1.8,0.5-2.6,1.8c11.1,2.1,21.9,4.1,32.7,6.1
			c10.8-6.6,21.5-13.1,32.3-19.7c0.6-0.4,1.3-0.8,2-1.2c0.9,2.5,1.8,4.8,2.4,7.3c1,4.6,0,8.7-3.5,11.9c-4.6,4.2-9,8.5-13.4,12.9
			c0.8,0.2,1.7,0.1,2.7-0.7c3.2-2.4,6.8-4.2,10-6.6c3.1-2.3,6.3-3.1,10.1-2.5c2,0.3,4.1,0.4,6.2,0.3c5.4-0.3,9.9,1.2,13,5.9
			c0.7,1.1,1.8,1.4,3,1.4c20.4,0.3,40.9,0.7,61.3,1c0.8,0,1.7,0.2,2.6-1.3c-28.6-7.1-57-14.1-85.7-21.1c0.7-1.5,2-1.9,3-2.6
			c40.6-25.5,81.2-51,121.8-76.5C472.3,80.5,475.2,79.8,474.2,78z"/>
		<path class="st8" d="M291.8,242.3l-8.8-4.9l0.4-16.5c0-0.4,0.3-0.9,0.7-1.1l7.8-4.6c0.7-0.4,0.9-1.2,0.5-1.8l-5.8-9.8
			c-0.5-0.8-1.6-1-2.5-0.5l0-0.5l-27.5,16.9l-27.5-16.9l0,0.5c-0.9-0.5-2-0.2-2.5,0.5l-5.8,9.8c-0.4,0.6-0.1,1.4,0.5,1.8l7.8,4.6
			c0.4,0.2,0.7,0.7,0.7,1.1l0.4,16.5l-8.8,4.9c-0.5,0.3-0.8,0.7-0.8,1.2l0.2,26.1c0,1.1,1.6,1.8,2.7,1.1l7.4-4.4l1.9,85.8
			c0,0.9,0.5,1.7,1.2,2.2l21.4,15.2c0.3,0.2,0.7,0.3,1.1,0.4c0.4,0,0.9-0.1,1.2-0.4l6.8-4.9l14.5-10.3c0.7-0.5,1.2-1.4,1.2-2.2
			l2-85.8l7.4,4.4c1.1,0.7,2.7,0,2.7-1.1l0.2-26.1C292.5,243,292.2,242.6,291.8,242.3z"/>
		<path class="st8" d="M256.8,377c-0.8,0.1-0.9,0.5-1.6,1c-2.9,2.7-5.8,5.3-8.5,8.1c-3.1,3.2-7,5.3-11.6,6.3c-1.2,0.2-2,1.3-2.1,2.5
			l-0.5,22.3c-0.1,2.1,2.4,3.4,4.1,2.2l18.4-13.1c0.3-0.2,0.6-0.6,0.8-0.9h1.8c0.2,0.4,0.5,0.7,0.8,0.9l18.4,13.1
			c1.8,1.2,4.2,0,4.1-2.2l-0.5-22.3c0-1.2-0.9-2.2-2.1-2.5c-4.6-1-8.5-3.1-11.6-6.3c-2.7-2.8-5.6-5.4-8.5-8.1
			C257.7,377.4,257.5,377.1,256.8,377"/>
	</g>
</g>
</svg>
