<svg id="Capa_1" data-name="Capa 1" xmlns="http://www.w3.org/2000/svg" viewBox="0 0 96 96"><defs><style>.cls-1{fill:#fff;}</style></defs><g id="_3GZBoS.tif" data-name="3GZBoS.tif"><path class="cls-1" d="M20.26,96c-2.66-.47-5.36-.18-8-.49-2.32-.26-4.65-.44-7-.58-1-.05-1.19-.42-1.09-1.31A47.32,47.32,0,0,1,17.56,65a49,49,0,0,1,6.78-5.67,1.37,1.37,0,0,1,1.94,0,36,36,0,0,0,43.42.08,1.52,1.52,0,0,1,2.15,0A46.44,46.44,0,0,1,91.72,92.31C92,94.7,92,94.75,89.66,95c-4,.47-8.07.68-12.13.78a4.23,4.23,0,0,0-1.69.2Z"/><path class="cls-1" d="M77.06,29.3A29.31,29.31,0,1,1,47.76,0,29.4,29.4,0,0,1,77.06,29.3Z"/></g></svg>