<?xml version="1.0" encoding="UTF-8"?>
<svg id="Capa_1" data-name="Capa 1" xmlns="http://www.w3.org/2000/svg" xmlns:xlink="http://www.w3.org/1999/xlink" viewBox="0 0 800 175">
  <defs>
    <style>
      .cls-1 {
        mask: url(#mask);
      }

      .cls-2 {
        fill: #fff;
      }

      .cls-3 {
        fill: #ff8b00;
      }

      .cls-4 {
        fill: url(#Degradado_sin_nombre_2-2);
      }

      .cls-5 {
        fill: url(#Degradado_sin_nombre_2-3);
      }

      .cls-6 {
        fill: url(#Degradado_sin_nombre_2);
        opacity: .5;
      }

      .cls-7 {
        mask: url(#mask-1);
      }
    </style>
    <mask id="mask" x="4.73" y="25" width="125" height="125" maskUnits="userSpaceOnUse">
      <g>
        <path class="cls-2" d="M116.79,49.42c-.93,.58-1.85,1.16-2.78,1.75,7.8,10.03,12.45,22.64,12.45,36.33,0,32.71-26.52,59.23-59.23,59.23S8,120.21,8,87.5c0-13.72,4.67-26.34,12.49-36.39-.93-.58-1.85-1.16-2.78-1.75-8.14,10.55-12.98,23.78-12.98,38.13,0,34.52,27.98,62.5,62.5,62.5s62.5-27.98,62.5-62.5c0-14.33-4.83-27.54-12.94-38.08Z"/>
        <path class="cls-2" d="M25.64,45.34c10.7-10.55,25.38-17.07,41.59-17.07s30.93,6.53,41.63,17.1c1.06-.48,2.13-.95,3.19-1.43-11.36-11.68-27.24-18.95-44.82-18.95s-33.43,7.25-44.78,18.91c1.06,.48,2.13,.95,3.19,1.43Z"/>
      </g>
    </mask>
    <linearGradient id="Degradado_sin_nombre_2" data-name="Degradado sin nombre 2" x1="67.23" y1="150" x2="67.23" y2="25" gradientUnits="userSpaceOnUse">
      <stop offset="0" stop-color="#1379f4"/>
      <stop offset="1" stop-color="aqua"/>
    </linearGradient>
    <linearGradient id="Degradado_sin_nombre_2-2" data-name="Degradado sin nombre 2" x1="67.4" y1="133.2" x2="67.4" y2="117.01" xlink:href="#Degradado_sin_nombre_2"/>
    <mask id="mask-1" x="46.7" y="45.07" width="40.88" height="27.25" maskUnits="userSpaceOnUse">
      <g>
        <path class="cls-2" d="M67.13,70.75c-1.47-2.07-2.04-4.35-2.68-6.59-1.5-5.28-2.93-10.58-4.46-15.86-.34-1.19-.09-1.76,1.14-1.96,.75-.12,1.52-.27,2.21-.57,3.69-1.62,7.1-.04,10.56,.86,.86,.22,.45,.92,.31,1.43-1.11,4.05-2.19,8.12-3.38,12.15-.92,3.11-1.36,6.37-2.99,9.25-.23,.4-.45,.81-.71,1.28Z"/>
        <path class="cls-2" d="M62.31,72.3c-2.91-.43-5.81-.85-8.71-1.33-.32-.05-.61-.44-.88-.7-1.71-1.68-3.37-3.41-5.13-5.04-.8-.74-1.09-1.52-.76-2.78,5.24,3.2,10.42,6.36,15.6,9.51l-.12,.33Z"/>
        <path class="cls-2" d="M71.67,72.02c5.21-3.18,10.42-6.35,15.71-9.58,.41,1.21,.15,2.01-.71,2.77-1.3,1.13-2.58,2.3-3.72,3.59-1.47,1.67-3.13,2.61-5.43,2.68-1.92,.06-3.83,.55-5.75,.84-.03-.1-.07-.2-.1-.3Z"/>
      </g>
    </mask>
    <linearGradient id="Degradado_sin_nombre_2-3" data-name="Degradado sin nombre 2" x1="-495.51" y1="253.27" x2="-495.51" y2="226.02" gradientTransform="translate(562.82 -180.95)" xlink:href="#Degradado_sin_nombre_2"/>
  </defs>
  <g>
    <g class="cls-1">
      <path class="cls-6" d="M67.23,25c-34.52,0-62.5,27.98-62.5,62.5s27.98,62.5,62.5,62.5,62.5-27.98,62.5-62.5-27.98-62.5-62.5-62.5Zm0,121.73c-32.71,0-59.23-26.52-59.23-59.23S34.52,28.27,67.23,28.27s59.23,26.52,59.23,59.23-26.52,59.23-59.23,59.23Z"/>
    </g>
    <rect class="cls-2" x="68.45" y="76.43" width="6.23" height="3.02" transform="translate(-27.96 42) rotate(-27.58)"/>
    <rect class="cls-2" x="60.01" y="76.58" width="6.23" height="3.02" transform="translate(53.05 -21.82) rotate(33.19)"/>
    <rect class="cls-2" x="61.57" y="78.21" width="11.58" height="22.69"/>
    <path class="cls-4" d="M63.61,117.81c-.78,.12-.94,.48-.72,1.24,.96,3.33,1.87,6.67,2.81,10,.4,1.41,.76,2.85,1.69,4.16,.17-.3,.31-.56,.45-.81,1.03-1.82,1.31-3.87,1.89-5.83,.75-2.54,1.43-5.11,2.13-7.66,.09-.33,.35-.76-.19-.9-2.18-.57-4.33-1.57-6.66-.54-.43,.19-.92,.29-1.4,.36Z"/>
    <g>
      <path class="cls-2" d="M62.86,64.21c-4.05-1.85-8.1-3.7-12.15-5.53-1.78-.81-3.48-1.85-5.54-1.87-.25,0-.51-.17-.76-.28-10.64-4.76-21.28-9.53-31.92-14.28-.38-.17-.95-.7-1.18-.3-.26,.47,.49,.64,.84,.86,10.4,6.55,20.81,13.08,31.21,19.62,.26,.16,.58,.27,.77,.66-7.35,1.81-14.63,3.61-21.96,5.42,.25,.4,.47,.34,.67,.34,5.23-.09,10.47-.18,15.7-.26,.33,0,.59-.07,.78-.36,.81-1.24,2-1.61,3.42-1.52,.51,.03,1.03-.02,1.54-.1,.95-.15,1.76,.06,2.54,.64,.82,.62,1.75,1.09,2.57,1.7,.22,.17,.41,.21,.59,.19-.99-.98-1.98-1.96-2.98-2.93-.79-.77-1.33-1.64-1.28-2.81-.02-.78,.29-1.53,.47-2.3,.08-.37,.29-.12,.42-.04,2.09,1.27,4.18,2.54,6.27,3.82,.75,.46,1.49,.91,2.24,1.36,2.79-.51,5.58-1.05,8.43-1.58-.21-.32-.46-.36-.67-.46Zm-6.39,.27l.82,.06c-.28,.02-.55,0-.82-.06Z"/>
      <path class="cls-2" d="M123.14,41.94c-.22-.4-.8,.13-1.18,.3-10.64,4.75-21.28,9.52-31.92,14.28-.25,.11-.51,.28-.76,.28-2.06,.02-3.76,1.06-5.54,1.87-4.05,1.84-8.1,3.69-12.15,5.53-.21,.1-.47,.14-.67,.46,2.83,.53,5.61,1.06,8.39,1.58,2.75-1.68,5.51-3.36,8.26-5.04,.16-.1,.33-.19,.51-.3,.22,.64,.47,1.24,.61,1.88,.26,1.18,0,2.24-.88,3.05-1.17,1.07-2.3,2.18-3.43,3.3,.21,.05,.43,.02,.69-.18,.82-.62,1.75-1.09,2.57-1.7,.79-.59,1.62-.8,2.59-.64,.52,.09,1.05,.11,1.58,.08,1.38-.07,2.54,.31,3.33,1.52,.19,.29,.45,.35,.78,.36,5.23,.08,10.47,.17,15.7,.26,.2,0,.43,.06,.67-.34-7.34-1.81-14.61-3.6-21.96-5.42,.19-.39,.51-.5,.77-.66,10.4-6.54,20.81-13.07,31.21-19.62,.35-.22,1.1-.4,.84-.86Z"/>
    </g>
    <path class="cls-2" d="M67.4,118.55c-.21,.03-.24,.12-.4,.26-.74,.69-1.49,1.36-2.18,2.09-.8,.83-1.8,1.38-2.99,1.63-.3,.06-.52,.33-.53,.64l-.13,5.74c-.01,.55,.61,.88,1.06,.56l4.74-3.37c.09-.06,.16-.15,.21-.24h.46c.05,.09,.12,.18,.21,.24l4.74,3.37c.45,.32,1.07-.01,1.06-.56l-.13-5.74c0-.31-.23-.57-.53-.64-1.2-.25-2.2-.8-2.99-1.63-.69-.72-1.44-1.4-2.18-2.09-.16-.15-.2-.24-.4-.26"/>
    <g class="cls-7">
      <path class="cls-5" d="M56.85,72.3h.06c.31,0,.58,0,1.23,0,.63,0,1.13,0,1.52,0h15.3c.37,0,.89,0,1.52,0,.66,0,.92,0,1.23,0h10.21v-27.22h-10.21c-.31,0-.58,0-1.23,0-.63,0-1.13,0-1.52,0h-15.3c-.37,0-.89,0-1.52,0-.66,0-.92,0-1.23,0h-10.21v27.22h10.15Z"/>
    </g>
    <path class="cls-2" d="M76.4,84.08l-2.26-1.24,.1-4.23c0-.11,.07-.22,.18-.28l1.99-1.18c.17-.1,.23-.3,.14-.46l-1.47-2.51c-.12-.2-.42-.27-.64-.14v-.14s-7.04,4.32-7.04,4.32l-7.05-4.32v.14c-.21-.13-.52-.07-.63,.14l-1.47,2.51c-.09,.16-.04,.35,.14,.46l1.99,1.18c.11,.07,.18,.17,.18,.28l.1,4.23-2.26,1.24c-.12,.07-.2,.18-.19,.31l.05,6.68c0,.29,.4,.46,.68,.29l1.88-1.12,.5,22.01c0,.23,.12,.44,.3,.57l5.49,3.9c.08,.06,.17,.09,.27,.09h0c.11,0,.22-.03,.32-.1l1.75-1.24h0l3.73-2.65c.19-.13,.3-.35,.31-.58l.5-22,1.88,1.12c.29,.17,.68,0,.68-.29l.05-6.68c0-.12-.07-.24-.19-.31Zm-2.91-8.19l1,1.79c.06,.11,.03,.25-.09,.32l-1.33,.83c-.07,.05-.12,.12-.12,.2l-.11,3.07-4.15-2.29c-.12-.06-.19-.17-.19-.29l-.02-.49c0-.11-.07-.2-.16-.27l4.75-3.08v.1c.14-.09,.35-.04,.43,.1Zm-6.09,24.59c-.16-.16-.32-.31-.47-.47l.47-13.65,.47,13.65c-.16,.16-.31,.31-.47,.47Zm.43-15.05c-.16-.1-.37-.03-.43,.11-.07-.14-.27-.21-.43-.11l-4.22,2.65c-.19,.12-.46,0-.46-.21l-.06-4.76c0-.09,.05-.17,.13-.22l5.04-2.95,5.04,2.95c.08,.05,.13,.13,.13,.22l-.06,4.76c0,.21-.27,.33-.46,.21l-4.22-2.65Zm-5.98-6.39c0-.08-.05-.15-.12-.2l-1.33-.83c-.12-.07-.15-.21-.09-.32l1-1.79c.08-.14,.28-.19,.43-.1v-.1s4.75,3.08,4.75,3.08c-.1,.07-.16,.16-.16,.27l-.02,.49c0,.12-.08,.23-.19,.29l-4.15,2.29-.11-3.07Zm1.17,18.09c-.32-.08-.55-.35-.56-.68l-.24-7.04,3.05-1.81c.29-.17,.7,0,.68,.31l-.23,10.84s-.06-.07-.1-.1c-.69-.77-1.56-1.28-2.6-1.52Zm9.33-.68c-.01,.33-.25,.61-.57,.69-1.03,.24-1.9,.75-2.59,1.52-.03,.03-.06,.07-.1,.1l-.23-10.84c-.01-.3,.39-.48,.68-.31l3.05,1.81-.24,7.03Z"/>
    <g>
      <path class="cls-3" d="M63.98,86.14l3.37-2.12c.16-.1,.37,0,.37,.18l-.43,12.34c.08-.13,.17-.25,.29-.36,.53-.52,1.06-1.03,1.55-1.58,.65-.72,1.49-1.15,2.51-1.3l.5-14.38c0-.06,.04-.12,.1-.16l1.06-.67c.09-.06,.12-.17,.07-.26l-.51-.89c-.06-.11-.23-.15-.34-.08v-.08s-4.52,2.79-4.52,2.79c-.06,.04-.09,.1-.09,.16v.28c-.01,.07-.05,.13-.11,.16l-4.11,2.4c-.07,.04-.1,.1-.1,.17l.05,3.22c0,.17,.21,.26,.37,.17Z"/>
      <path class="cls-3" d="M70.48,86.14l-3.37-2.12c-.16-.1-.37,0-.37,.18l.43,12.34c-.08-.13-.17-.25-.29-.36-.53-.52-1.06-1.03-1.55-1.58-.65-.72-1.49-1.15-2.51-1.3l-.5-14.38c0-.06-.04-.12-.1-.16l-1.06-.67c-.09-.06-.12-.17-.07-.26l.51-.89c.06-.11,.23-.15,.34-.08v-.08s4.52,2.79,4.52,2.79c.06,.04,.09,.1,.09,.16v.28c.01,.07,.05,.13,.11,.16l4.11,2.4c.07,.04,.1,.1,.1,.17l-.05,3.22c0,.17-.21,.26-.37,.17Z"/>
    </g>
  </g>
  <path class="cls-2" d="M145.41,54.4c0-.57,.2-1.08,.61-1.54,.41-.45,.94-.68,1.6-.68h57.39c.65,0,1.19,.23,1.6,.68,.41,.45,.61,.97,.61,1.54v3.93c0,1.56-.74,2.33-2.21,2.33h-57.39c-.66,0-1.19-.23-1.6-.68-.41-.45-.61-1-.61-1.66v-3.93Zm26.05,15.24c0-.65,.23-1.19,.68-1.6,.45-.41,1-.61,1.66-.61h4.92c.65,0,1.19,.2,1.6,.61,.41,.41,.62,.94,.62,1.6v43.75c0,.66-.21,1.19-.62,1.6-.41,.41-.94,.61-1.6,.61h-4.92c-.65,0-1.21-.2-1.66-.61s-.68-.94-.68-1.6v-43.75Z"/>
  <path class="cls-2" d="M217.06,65.59c0-.57,.2-1.06,.62-1.48s.9-.61,1.48-.61h4.67c.57,0,1.06,.2,1.48,.61,.41,.41,.61,.9,.61,1.48v47.93c0,.57-.2,1.07-.61,1.48-.41,.41-.9,.61-1.48,.61h-4.67c-.57,0-1.07-.2-1.48-.61-.41-.41-.62-.9-.62-1.48v-47.93Z"/>
  <path class="cls-2" d="M255.65,107.86h37.24c.57,0,1.06,.21,1.48,.62,.41,.41,.61,.9,.61,1.48v3.56c0,.57-.2,1.07-.61,1.48-.41,.41-.9,.61-1.48,.61h-43.42c-.57,0-1.05-.2-1.45-.61-.4-.41-.6-.9-.6-1.48v-47.93c0-.57,.2-1.06,.6-1.48,.4-.41,.89-.61,1.45-.61h42.92c.57,0,1.06,.2,1.48,.61,.41,.41,.61,.9,.61,1.48v3.57c0,.57-.2,1.06-.61,1.47s-.9,.62-1.48,.62h-36.75v36.62Zm6.51-21.14c0-.57,.2-1.06,.61-1.48s.9-.61,1.48-.61h25.19c.57,0,1.06,.2,1.48,.61,.41,.41,.61,.9,.61,1.48v3.56c0,.66-.2,1.17-.61,1.54-.41,.37-.9,.55-1.48,.55h-25.19c-.57,0-1.07-.18-1.48-.55-.41-.37-.61-.88-.61-1.54v-3.56Z"/>
  <path class="cls-2" d="M344.01,63.5c2.29,0,4.4,.41,6.33,1.23,1.93,.82,3.58,1.95,4.98,3.38s2.5,3.09,3.32,4.98c.82,1.89,1.23,3.93,1.23,6.15,0,3.93-1.15,7.27-3.44,10.02-2.3,2.75-5.2,4.53-8.73,5.35l14.01,18.93c.25,.41,.37,.82,.37,1.23,0,.57-.33,.86-.98,.86h-6.76c-.25,0-.51-.08-.8-.25-.29-.16-.51-.37-.68-.61l-14.62-19.67h-9.34c-.57,0-1.07-.2-1.48-.61-.41-.41-.62-.9-.62-1.48v-3.19c0-.57,.2-1.07,.62-1.48,.41-.41,.9-.62,1.48-.62h14.75c2.46,0,4.46-.78,6.02-2.33s2.33-3.56,2.33-6.02c0-2.29-.82-4.22-2.46-5.78-1.64-1.56-3.61-2.33-5.9-2.33h-23.35v42.28c0,.57-.2,1.07-.61,1.48-.41,.41-.9,.61-1.48,.61h-4.42c-.57,0-1.07-.2-1.48-.61-.41-.41-.62-.9-.62-1.48v-47.93c0-.57,.2-1.06,.62-1.48s.9-.61,1.48-.61h30.23Z"/>
  <path class="cls-2" d="M410.75,63.5c2.29,0,4.4,.41,6.33,1.23,1.93,.82,3.58,1.95,4.98,3.38,1.39,1.43,2.5,3.09,3.32,4.98,.82,1.89,1.23,3.93,1.23,6.15,0,3.93-1.15,7.27-3.44,10.02-2.3,2.75-5.2,4.53-8.73,5.35l14.01,18.93c.25,.41,.37,.82,.37,1.23,0,.57-.33,.86-.98,.86h-6.76c-.25,0-.51-.08-.8-.25-.29-.16-.51-.37-.68-.61l-14.62-19.67h-9.34c-.57,0-1.07-.2-1.48-.61-.41-.41-.62-.9-.62-1.48v-3.19c0-.57,.2-1.07,.62-1.48,.41-.41,.9-.62,1.48-.62h14.75c2.46,0,4.46-.78,6.02-2.33,1.56-1.56,2.33-3.56,2.33-6.02,0-2.29-.82-4.22-2.46-5.78-1.64-1.56-3.61-2.33-5.9-2.33h-23.35v42.28c0,.57-.2,1.07-.61,1.48-.41,.41-.9,.61-1.48,.61h-4.42c-.57,0-1.07-.2-1.48-.61-.41-.41-.62-.9-.62-1.48v-47.93c0-.57,.2-1.06,.62-1.48s.9-.61,1.48-.61h30.23Z"/>
  <path class="cls-2" d="M463.59,65.59c.25-.57,.68-1.06,1.29-1.48,.61-.41,1.21-.61,1.78-.61h4.42c.57,0,1.17,.2,1.78,.61,.61,.41,1.08,.9,1.41,1.48l25.44,47.93c.16,.49,.25,.82,.25,.98,0,.74-.41,1.11-1.23,1.11h-5.65c-.9,0-1.64-.49-2.21-1.48l-5.78-10.82h-23.97c-.82,0-1.23-.37-1.23-1.11,0-.16,.08-.49,.25-.98l1.97-3.81c.57-.98,1.31-1.48,2.21-1.48h16.84l-12.41-24.21-21.63,42.4c-.17,.41-.47,.76-.92,1.05-.45,.29-.88,.43-1.29,.43h-5.28c-.82,0-1.23-.37-1.23-1.11,0-.16,.08-.49,.25-.98l24.95-47.93Z"/>
  <path class="cls-2" d="M530.05,58.95c0-1.48,.61-2.97,1.84-4.49,1.23-1.52,2.91-2.27,5.04-2.27h48.18c.65,0,1.19,.23,1.6,.68,.41,.45,.61,.97,.61,1.54v4.06c0,.66-.2,1.19-.61,1.6s-.94,.62-1.6,.62h-45.47v46.46h47.07c.65,0,1.19,.21,1.6,.62,.41,.41,.62,.94,.62,1.6v4.06c0,.57-.21,1.09-.62,1.54-.41,.45-.94,.68-1.6,.68h-49.9c-1.97,0-3.59-.7-4.86-2.09-1.27-1.39-1.9-2.95-1.9-4.67V58.95Z"/>
  <path class="cls-2" d="M618.05,107.86h37.24c.57,0,1.06,.21,1.47,.62,.41,.41,.62,.9,.62,1.48v3.56c0,.57-.21,1.07-.62,1.48s-.9,.61-1.47,.61h-43.42c-.57,0-1.05-.2-1.45-.61-.4-.41-.6-.9-.6-1.48v-47.93c0-.57,.2-1.06,.6-1.48,.4-.41,.89-.61,1.45-.61h42.92c.57,0,1.06,.2,1.47,.61,.41,.41,.62,.9,.62,1.48v3.57c0,.57-.21,1.06-.62,1.47-.41,.41-.9,.62-1.47,.62h-36.75v36.62Zm6.51-21.14c0-.57,.2-1.06,.61-1.48s.9-.61,1.48-.61h25.19c.57,0,1.06,.2,1.48,.61,.41,.41,.61,.9,.61,1.48v3.56c0,.66-.2,1.17-.61,1.54-.41,.37-.9,.55-1.48,.55h-25.19c-.57,0-1.07-.18-1.48-.55-.41-.37-.61-.88-.61-1.54v-3.56Z"/>
  <path class="cls-2" d="M706.41,63.5c2.29,0,4.4,.41,6.33,1.23,1.92,.82,3.58,1.95,4.98,3.38,1.39,1.43,2.5,3.09,3.32,4.98,.82,1.89,1.23,3.93,1.23,6.15,0,3.93-1.15,7.27-3.44,10.02-2.3,2.75-5.2,4.53-8.73,5.35l14.01,18.93c.25,.41,.37,.82,.37,1.23,0,.57-.33,.86-.98,.86h-6.76c-.25,0-.51-.08-.8-.25-.29-.16-.51-.37-.68-.61l-14.62-19.67h-9.34c-.57,0-1.07-.2-1.48-.61-.41-.41-.61-.9-.61-1.48v-3.19c0-.57,.2-1.07,.61-1.48s.9-.62,1.48-.62h14.75c2.46,0,4.46-.78,6.02-2.33s2.33-3.56,2.33-6.02c0-2.29-.82-4.22-2.46-5.78-1.64-1.56-3.61-2.33-5.9-2.33h-23.35v42.28c0,.57-.2,1.07-.61,1.48-.41,.41-.9,.61-1.48,.61h-4.43c-.57,0-1.07-.2-1.48-.61s-.61-.9-.61-1.48v-47.93c0-.57,.2-1.06,.61-1.48,.41-.41,.9-.61,1.48-.61h30.23Z"/>
  <path class="cls-2" d="M739.84,71.24c0-.9,.23-1.82,.68-2.77,.45-.94,1.05-1.78,1.78-2.52s1.58-1.33,2.52-1.78c.94-.45,1.86-.68,2.77-.68h39.94c.98,0,1.93,.23,2.83,.68,.9,.45,1.72,1.05,2.46,1.78,.74,.74,1.33,1.58,1.78,2.52,.45,.94,.68,1.87,.68,2.77v36.62c0,.9-.23,1.82-.68,2.77s-1.05,1.78-1.78,2.52c-.74,.74-1.56,1.33-2.46,1.78-.9,.45-1.85,.68-2.83,.68h-39.94c-.9,0-1.82-.23-2.77-.68s-1.78-1.05-2.52-1.78-1.33-1.58-1.78-2.52-.68-1.86-.68-2.77v-36.62Zm8.48,36.62h38.47v-36.62h-38.47v36.62Z"/>
</svg>