<?xml version="1.0" encoding="utf-8"?>
<!-- Generator: Adobe Illustrator 26.1.0, SVG Export Plug-In . SVG Version: 6.00 Build 0)  -->
<svg version="1.1" id="Capa_1" xmlns="http://www.w3.org/2000/svg" xmlns:xlink="http://www.w3.org/1999/xlink" x="0px" y="0px"
	 viewBox="0 0 512 512" style="enable-background:new 0 0 512 512;" xml:space="preserve">
<style type="text/css">
	.st0{filter:url(#Adobe_OpacityMaskFilter);}
	.st1{fill:#FFFFFF;}
	.st2{opacity:0.5;mask:url(#SVGID_1_);fill:url(#SVGID_00000057868775833475231270000018165181565355544723_);}
	.st3{fill:url(#SVGID_00000051385096523865857450000000364079386280288913_);}
	.st4{fill:#0E1B28;}
	.st5{filter:url(#Adobe_OpacityMaskFilter_00000130623880807267447510000005521026657971483564_);}
	
		.st6{mask:url(#SVGID_00000025424504352472819960000015405615673654604674_);fill:url(#SVGID_00000103949818421382513200000007598281123777706405_);}
	.st7{fill:#FF8B00;}
</style>
<defs>
	<filter id="Adobe_OpacityMaskFilter" filterUnits="userSpaceOnUse" x="0.07" y="0.07" width="512" height="512">
		<feColorMatrix  type="matrix" values="1 0 0 0 0  0 1 0 0 0  0 0 1 0 0  0 0 0 1 0"/>
	</filter>
</defs>
<mask maskUnits="userSpaceOnUse" x="0.07" y="0.07" width="512" height="512" id="SVGID_1_">
	<g class="st0">
		<g>
			<path class="st1" d="M459.06,100.09c-3.8,2.38-7.59,4.77-11.39,7.16c31.96,41.09,51,92.73,51,148.82
				c0,133.99-108.62,242.61-242.61,242.61S13.46,390.06,13.46,256.07c0-56.19,19.11-107.91,51.17-149.03
				c-3.8-2.39-7.59-4.77-11.39-7.16C19.91,143.1,0.07,197.26,0.07,256.07c0,141.38,114.62,256,256,256c141.38,0,256-114.62,256-256
				C512.07,197.36,492.29,143.28,459.06,100.09z"/>
			<path class="st1" d="M85.7,83.37c43.81-43.22,103.97-69.9,170.37-69.9c66.48,0,126.7,26.75,170.52,70.05
				c4.35-1.95,8.71-3.9,13.06-5.84c-46.52-47.86-111.57-77.6-183.58-77.6c-71.93,0-136.93,29.68-183.43,77.45
				C76.99,79.47,81.35,81.42,85.7,83.37z"/>
		</g>
	</g>
</mask>
<linearGradient id="SVGID_00000042700212117997162780000005844141351368667549_" gradientUnits="userSpaceOnUse" x1="256.068" y1="512.0679" x2="256.068" y2="0.0681">
	<stop  offset="0" style="stop-color:#1379F4"/>
	<stop  offset="1" style="stop-color:#00FFFF"/>
</linearGradient>
<path style="opacity:0.5;mask:url(#SVGID_1_);fill:url(#SVGID_00000042700212117997162780000005844141351368667549_);" d="
	M256.07,0.07c-141.38,0-256,114.62-256,256s114.62,256,256,256s256-114.62,256-256S397.45,0.07,256.07,0.07z M256.07,498.67
	c-133.99,0-242.61-108.62-242.61-242.61S122.08,13.46,256.07,13.46s242.61,108.62,242.61,242.61S390.06,498.67,256.07,498.67z"/>
<linearGradient id="SVGID_00000148659806413793092660000017857593154376394630_" gradientUnits="userSpaceOnUse" x1="256.7514" y1="443.2675" x2="256.7514" y2="376.9215">
	<stop  offset="0" style="stop-color:#1379F4"/>
	<stop  offset="1" style="stop-color:#00FFFF"/>
</linearGradient>
<path style="fill:url(#SVGID_00000148659806413793092660000017857593154376394630_);" d="M241.23,380.21
	c-3.18,0.5-3.84,1.98-2.95,5.06c3.95,13.63,7.64,27.33,11.53,40.97c1.65,5.79,3.1,11.68,6.91,17.02c0.68-1.22,1.26-2.27,1.85-3.32
	c4.2-7.44,5.35-15.87,7.72-23.89c3.08-10.41,5.85-20.92,8.73-31.39c0.37-1.33,1.43-3.13-0.79-3.71c-8.94-2.34-17.75-6.42-27.28-2.23
	C245.17,379.52,243.17,379.9,241.23,380.21z"/>
<g>
	<path class="st4" d="M238.18,160.66c-16.58-7.57-33.16-15.15-49.77-22.67c-7.3-3.31-14.27-7.58-22.69-7.65
		c-1.04-0.01-2.1-0.69-3.11-1.14c-43.58-19.51-87.15-39.04-130.75-58.5c-1.56-0.7-3.91-2.86-4.82-1.23
		c-1.07,1.92,1.99,2.63,3.43,3.54c42.59,26.81,85.22,53.56,127.84,80.34c1.05,0.66,2.37,1.09,3.15,2.7
		c-30.11,7.43-59.91,14.78-89.96,22.19c1,1.63,1.93,1.4,2.75,1.38c21.44-0.35,42.87-0.72,64.31-1.05c1.34-0.02,2.41-0.3,3.18-1.47
		c3.33-5.09,8.21-6.61,14.02-6.22c2.08,0.14,4.22-0.08,6.3-0.4c3.88-0.59,7.21,0.25,10.4,2.64c3.36,2.52,7.18,4.45,10.53,6.98
		c0.9,0.68,1.69,0.86,2.41,0.79c-4.06-4.01-8.09-8.05-12.19-12.02c-3.26-3.16-5.43-6.71-5.26-11.5c-0.06-3.21,1.2-6.25,1.91-9.41
		c0.35-1.53,1.17-0.5,1.72-0.17c8.57,5.2,17.12,10.42,25.68,15.63c3.06,1.86,6.12,3.72,9.18,5.59c11.41-2.1,22.86-4.3,34.53-6.49
		C240.1,161.22,239.06,161.06,238.18,160.66z M212.02,161.78l3.37,0.25C214.23,162.1,213.12,162.02,212.02,161.78z"/>
	<path class="st4" d="M485.09,69.46c-0.91-1.63-3.26,0.54-4.82,1.23c-43.6,19.46-87.17,38.99-130.75,58.5
		c-1.01,0.45-2.07,1.13-3.11,1.14c-8.42,0.07-15.39,4.34-22.69,7.65c-16.6,7.52-33.18,15.1-49.77,22.67
		c-0.88,0.4-1.92,0.57-2.76,1.87c11.61,2.18,23,4.36,34.35,6.45c11.28-6.88,22.56-13.77,33.84-20.65c0.67-0.41,1.35-0.8,2.09-1.23
		c0.91,2.62,1.92,5.09,2.49,7.7c1.05,4.82,0.01,9.18-3.62,12.49c-4.81,4.38-9.44,8.94-14.03,13.54c0.84,0.19,1.75,0.09,2.84-0.73
		c3.35-2.54,7.17-4.46,10.53-6.98c3.24-2.43,6.63-3.26,10.6-2.61c2.14,0.35,4.31,0.46,6.47,0.34c5.65-0.3,10.39,1.26,13.65,6.24
		c0.77,1.17,1.84,1.45,3.18,1.47c21.44,0.33,42.87,0.7,64.31,1.05c0.82,0.01,1.74,0.25,2.75-1.38
		c-30.05-7.41-59.85-14.76-89.96-22.19c0.78-1.62,2.1-2.04,3.15-2.7c42.61-26.78,85.24-53.54,127.84-80.34
		C483.1,72.1,486.16,71.38,485.09,69.46z"/>
</g>
<path class="st4" d="M256.75,383.24c-0.84,0.13-0.98,0.47-1.64,1.08c-3.03,2.81-6.08,5.58-8.92,8.54
	c-3.26,3.41-7.36,5.64-12.26,6.67c-1.24,0.26-2.15,1.34-2.18,2.61l-0.53,23.49c-0.05,2.25,2.49,3.6,4.33,2.3l19.42-13.8
	c0.36-0.26,0.65-0.6,0.85-0.98h1.87c0.2,0.38,0.48,0.72,0.85,0.98l19.42,13.8c1.84,1.31,4.38-0.04,4.33-2.3l-0.53-23.49
	c-0.03-1.27-0.93-2.35-2.18-2.61c-4.9-1.03-9-3.26-12.26-6.67c-2.83-2.96-5.89-5.73-8.92-8.54
	C257.73,383.71,257.55,383.35,256.75,383.24"/>
<defs>
	
		<filter id="Adobe_OpacityMaskFilter_00000040553387289835996230000002130657789804074135_" filterUnits="userSpaceOnUse" x="171.97" y="82.27" width="168.83" height="111.61">
		<feColorMatrix  type="matrix" values="1 0 0 0 0  0 1 0 0 0  0 0 1 0 0  0 0 0 1 0"/>
	</filter>
</defs>
<mask maskUnits="userSpaceOnUse" x="171.97" y="82.27" width="168.83" height="111.61" id="SVGID_00000091699841104522959960000014082990169854131328_">
	<g style="filter:url(#Adobe_OpacityMaskFilter_00000040553387289835996230000002130657789804074135_);">
		<g>
			<path class="st1" d="M255.64,187.46c-6.04-8.47-8.35-17.82-10.96-26.99c-6.16-21.64-12.02-43.36-18.27-64.96
				c-1.41-4.87-0.36-7.22,4.68-8.02c3.07-0.49,6.24-1.1,9.06-2.34c15.1-6.65,29.07-0.18,43.25,3.53c3.51,0.92,1.83,3.76,1.25,5.88
				c-4.56,16.6-8.95,33.26-13.84,49.77c-3.76,12.72-5.58,26.09-12.24,37.88C257.63,183.86,256.71,185.52,255.64,187.46z"/>
			<path class="st1" d="M235.93,193.83c-11.9-1.78-23.81-3.49-35.68-5.45c-1.33-0.22-2.51-1.79-3.62-2.88
				c-7-6.88-13.82-13.95-21.01-20.63c-3.27-3.04-4.45-6.23-3.1-11.38c21.48,13.1,42.69,26.04,63.91,38.97
				C236.26,192.92,236.09,193.38,235.93,193.83z"/>
			<path class="st1" d="M274.25,192.66c21.33-13.01,42.67-26.03,64.36-39.26c1.7,4.96,0.63,8.24-2.92,11.34
				c-5.31,4.64-10.58,9.43-15.23,14.71c-6.01,6.83-12.83,10.67-22.23,10.97c-7.88,0.25-15.71,2.24-23.56,3.46
				C274.54,193.47,274.4,193.07,274.25,192.66z"/>
		</g>
	</g>
</mask>
<linearGradient id="SVGID_00000138562621847054881130000006845958710950681740_" gradientUnits="userSpaceOnUse" x1="-306.4363" y1="374.8319" x2="-306.4363" y2="263.2196" gradientTransform="matrix(1 0 0 1 562.82 -180.95)">
	<stop  offset="0" style="stop-color:#1379F4"/>
	<stop  offset="1" style="stop-color:#00FFFF"/>
</linearGradient>
<path style="mask:url(#SVGID_00000091699841104522959960000014082990169854131328_);fill:url(#SVGID_00000138562621847054881130000006845958710950681740_);" d="
	M213.55,193.82h0.23c1.26,0.03,2.39,0.03,5.05,0.03c2.57,0.03,4.64,0.03,6.22,0.03h62.68c1.53,0,3.65,0,6.22-0.03
	c2.71,0,3.79-0.03,5.05-0.03h41.8V82.33H299c-1.26-0.03-2.39-0.03-5.05-0.03c-2.57-0.03-4.64-0.03-6.22-0.03h-62.68
	c-1.53,0-3.65,0-6.22,0.03c-2.71,0.03-3.79,0.03-5.05,0.03h-41.8v111.49H213.55L213.55,193.82z"/>
<path class="st4" d="M293.64,242.04l-9.24-5.1l0.39-17.34c0.02-0.46,0.3-0.89,0.75-1.16l8.14-4.83c0.71-0.42,0.95-1.21,0.57-1.87
	l-6.04-10.3c-0.48-0.82-1.73-1.09-2.62-0.56l-28.85,17.13l-28.85-17.13c-0.89-0.53-2.13-0.27-2.62,0.56l-6.04,10.3
	c-0.38,0.66-0.14,1.45,0.57,1.87l8.14,4.83c0.45,0.27,0.73,0.7,0.75,1.16l0.39,17.34l-9.24,5.1c-0.5,0.28-0.8,0.75-0.8,1.25
	l0.21,27.38c0.01,1.2,1.63,1.9,2.8,1.2l7.72-4.58l2.05,90.13c0.02,0.93,0.48,1.8,1.24,2.33l22.49,15.98
	c0.32,0.23,0.71,0.36,1.11,0.37c0.46,0.01,0.92-0.12,1.3-0.39l7.17-5.09l15.27-10.85c0.77-0.55,1.23-1.42,1.26-2.37l2.05-90.11
	l7.72,4.58c1.17,0.69,2.79,0,2.8-1.2l0.21-27.38C294.44,242.79,294.14,242.32,293.64,242.04z"/>
<path class="st7" d="M281.22,216.47l-2.11-3.63c-0.26-0.47-0.93-0.62-1.4-0.32l-18.52,11.12c-0.23,0.15-0.38,0.39-0.38,0.65
	l-0.04,1.13c-0.01,0.27-0.17,0.52-0.42,0.67l-2.27,1.33l-2.27-1.33c-0.26-0.15-0.41-0.4-0.42-0.67l-0.04-1.13
	c-0.01-0.26-0.15-0.5-0.38-0.65l-18.52-11.12c-0.47-0.3-1.14-0.15-1.4,0.32l-2.11,3.63c-0.21,0.37-0.08,0.82,0.3,1.06l4.35,2.73
	c0.24,0.15,0.39,0.39,0.4,0.66l2.04,58.91c4.19,0.59,7.63,2.36,10.28,5.32c2.02,2.25,4.2,4.35,6.36,6.48
	c0.47,0.46,0.85,0.96,1.17,1.48l-1.72-49.69l1.99-1.25l1.99,1.25l-1.72,49.69c0.32-0.52,0.7-1.02,1.17-1.48
	c2.16-2.13,4.34-4.23,6.36-6.48c2.65-2.95,6.09-4.73,10.28-5.32l2.04-58.91c0.01-0.26,0.16-0.51,0.4-0.66l4.35-2.73
	C281.31,217.29,281.43,216.84,281.22,216.47z"/>
</svg>
