<?xml version="1.0" encoding="UTF-8"?>
<svg id="Capa_1" data-name="Capa 1" xmlns="http://www.w3.org/2000/svg" xmlns:xlink="http://www.w3.org/1999/xlink" viewBox="0 0 800 175">
  <defs>
    <style>
      .cls-1 {
        mask: url(#mask);
      }

      .cls-2 {
        fill: #fff;
      }

      .cls-3 {
        fill: #ff8b00;
      }

      .cls-4, .cls-5 {
        fill: #0e1b28;
      }

      .cls-6 {
        fill: url(#Degradado_sin_nombre_2-2);
      }

      .cls-7 {
        fill: url(#Degradado_sin_nombre_2-3);
      }

      .cls-8 {
        fill: url(#Degradado_sin_nombre_2);
      }

      .cls-9 {
        mask: url(#mask-1);
      }

      .cls-5 {
        opacity: .7;
      }
    </style>
    <mask id="mask" x=".5" y="24.33" width="126.34" height="126.34" maskUnits="userSpaceOnUse">
      <g>
        <path class="cls-2" d="M113.76,49.01c-.94,.59-1.87,1.18-2.81,1.77,7.89,10.14,12.59,22.88,12.59,36.72,0,33.06-26.8,59.86-59.86,59.86S3.81,120.56,3.81,87.5c0-13.86,4.72-26.63,12.63-36.77-.94-.59-1.87-1.18-2.81-1.77C5.4,59.62,.5,72.99,.5,87.5c0,34.89,28.28,63.17,63.17,63.17s63.17-28.28,63.17-63.17c0-14.49-4.88-27.83-13.08-38.49Z"/>
        <path class="cls-2" d="M21.63,44.89c10.81-10.66,25.65-17.25,42.04-17.25s31.26,6.6,42.08,17.29c1.07-.48,2.15-.96,3.22-1.44-11.48-11.81-27.53-19.15-45.3-19.15s-33.79,7.32-45.26,19.11c1.07,.48,2.15,.96,3.22,1.44Z"/>
      </g>
    </mask>
    <linearGradient id="Degradado_sin_nombre_2" data-name="Degradado sin nombre 2" x1="63.67" y1="150.67" x2="63.67" y2="24.33" gradientUnits="userSpaceOnUse">
      <stop offset="0" stop-color="#1379f4"/>
      <stop offset="1" stop-color="aqua"/>
    </linearGradient>
    <linearGradient id="Degradado_sin_nombre_2-2" data-name="Degradado sin nombre 2" x1="63.84" y1="133.69" x2="63.84" y2="117.32" xlink:href="#Degradado_sin_nombre_2"/>
    <mask id="mask-1" x="42.92" y="44.61" width="41.31" height="27.54" maskUnits="userSpaceOnUse">
      <g>
        <path class="cls-2" d="M63.56,70.57c-1.49-2.09-2.06-4.4-2.7-6.66-1.52-5.34-2.97-10.7-4.51-16.03-.35-1.2-.09-1.78,1.15-1.98,.76-.12,1.54-.27,2.24-.58,3.73-1.64,7.17-.04,10.67,.87,.87,.23,.45,.93,.31,1.45-1.12,4.1-2.21,8.21-3.41,12.28-.93,3.14-1.38,6.44-3.02,9.35-.23,.41-.46,.82-.72,1.3Z"/>
        <path class="cls-2" d="M58.7,72.14c-2.94-.44-5.88-.86-8.8-1.34-.33-.05-.62-.44-.89-.71-1.73-1.7-3.41-3.44-5.18-5.09-.81-.75-1.1-1.54-.76-2.81,5.3,3.23,10.53,6.42,15.77,9.62l-.12,.34Z"/>
        <path class="cls-2" d="M68.16,71.85c5.26-3.21,10.53-6.42,15.88-9.69,.42,1.22,.16,2.03-.72,2.8-1.31,1.14-2.61,2.33-3.76,3.63-1.48,1.69-3.17,2.63-5.48,2.71-1.94,.06-3.88,.55-5.81,.85-.04-.1-.07-.2-.11-.3Z"/>
      </g>
    </mask>
    <linearGradient id="Degradado_sin_nombre_2-3" data-name="Degradado sin nombre 2" x1="-499.07" y1="253.11" x2="-499.07" y2="225.56" gradientTransform="translate(562.82 -180.95)" xlink:href="#Degradado_sin_nombre_2"/>
  </defs>
  <g class="cls-1">
    <path class="cls-8" d="M63.67,24.33C28.78,24.33,.5,52.61,.5,87.5s28.28,63.17,63.17,63.17,63.17-28.28,63.17-63.17S98.56,24.33,63.67,24.33Zm0,123.03c-33.06,0-59.86-26.8-59.86-59.86S30.61,27.64,63.67,27.64s59.86,26.8,59.86,59.86-26.8,59.86-59.86,59.86Z"/>
  </g>
  <path class="cls-6" d="M60.01,118.13c-.78,.12-.95,.49-.73,1.25,.97,3.36,1.89,6.74,2.84,10.11,.41,1.43,.77,2.88,1.71,4.2,.17-.3,.31-.56,.46-.82,1.04-1.83,1.32-3.92,1.91-5.9,.76-2.57,1.44-5.16,2.15-7.75,.09-.33,.35-.77-.19-.91-2.21-.58-4.38-1.58-6.73-.55-.44,.19-.93,.29-1.41,.36Z"/>
  <g>
    <path class="cls-4" d="M59.26,63.96c-4.09-1.87-8.18-3.74-12.28-5.59-1.8-.82-3.52-1.87-5.6-1.89-.26,0-.52-.17-.77-.28-10.75-4.81-21.5-9.63-32.26-14.44-.38-.17-.96-.71-1.19-.3-.26,.47,.49,.65,.85,.87,10.51,6.62,21.03,13.22,31.54,19.83,.26,.16,.59,.27,.78,.67-7.43,1.83-14.78,3.65-22.2,5.47,.25,.4,.48,.34,.68,.34,5.29-.09,10.58-.18,15.87-.26,.33,0,.6-.07,.78-.36,.82-1.26,2.02-1.63,3.46-1.54,.51,.03,1.04-.02,1.55-.1,.96-.15,1.78,.06,2.57,.65,.83,.62,1.77,1.1,2.6,1.72,.22,.17,.42,.21,.59,.2-1-.99-2-1.99-3.01-2.97-.8-.78-1.34-1.66-1.3-2.84-.02-.79,.3-1.54,.47-2.32,.09-.38,.29-.12,.42-.04,2.11,1.28,4.22,2.57,6.34,3.86,.75,.46,1.51,.92,2.26,1.38,2.82-.52,5.64-1.06,8.52-1.6-.21-.32-.46-.36-.68-.46Zm-6.46,.28l.83,.06c-.29,.02-.56,0-.83-.06Z"/>
    <path class="cls-4" d="M120.18,41.45c-.22-.4-.8,.13-1.19,.3-10.76,4.8-21.51,9.62-32.26,14.44-.25,.11-.51,.28-.77,.28-2.08,.02-3.8,1.07-5.6,1.89-4.1,1.86-8.19,3.73-12.28,5.59-.22,.1-.47,.14-.68,.46,2.86,.54,5.67,1.08,8.48,1.59,2.78-1.7,5.57-3.4,8.35-5.09,.17-.1,.33-.2,.52-.3,.23,.65,.47,1.26,.62,1.9,.26,1.19,0,2.27-.89,3.08-1.19,1.08-2.33,2.21-3.46,3.34,.21,.05,.43,.02,.7-.18,.83-.63,1.77-1.1,2.6-1.72,.8-.6,1.64-.81,2.62-.64,.53,.09,1.06,.11,1.6,.08,1.39-.07,2.56,.31,3.37,1.54,.19,.29,.45,.36,.78,.36,5.29,.08,10.58,.17,15.87,.26,.2,0,.43,.06,.68-.34-7.42-1.83-14.77-3.64-22.2-5.47,.19-.4,.52-.5,.78-.67,10.51-6.61,21.03-13.21,31.54-19.83,.36-.22,1.11-.4,.85-.87Z"/>
  </g>
  <path class="cls-4" d="M63.84,118.88c-.21,.03-.24,.12-.4,.27-.75,.69-1.5,1.38-2.2,2.11-.8,.84-1.82,1.39-3.02,1.65-.31,.06-.53,.33-.54,.64l-.13,5.8c-.01,.56,.61,.89,1.07,.57l4.79-3.4c.09-.06,.16-.15,.21-.24h.46c.05,.09,.12,.18,.21,.24l4.79,3.4c.45,.32,1.08-.01,1.07-.57l-.13-5.8c0-.31-.23-.58-.54-.64-1.21-.26-2.22-.8-3.02-1.65-.7-.73-1.45-1.41-2.2-2.11-.16-.15-.21-.24-.4-.27"/>
  <g class="cls-9">
    <path class="cls-7" d="M53.18,72.14h.06c.31,0,.59,0,1.25,0,.63,0,1.15,0,1.54,0h15.47c.38,0,.9,0,1.54,0,.67,0,.93,0,1.25,0h10.31v-27.51h-10.31c-.31,0-.59,0-1.25,0-.63,0-1.15,0-1.54,0h-15.47c-.38,0-.9,0-1.54,0-.67,0-.93,0-1.25,0h-10.31v27.51h10.26Z"/>
  </g>
  <path class="cls-4" d="M72.94,84.04l-2.28-1.26,.1-4.28c0-.11,.07-.22,.18-.29l2.01-1.19c.18-.1,.23-.3,.14-.46l-1.49-2.54c-.12-.2-.43-.27-.65-.14v-.14s-7.12,4.37-7.12,4.37l-7.12-4.37v.14c-.21-.13-.52-.07-.64,.14l-1.49,2.54c-.09,.16-.04,.36,.14,.46l2.01,1.19c.11,.07,.18,.17,.18,.29l.1,4.28-2.28,1.26c-.12,.07-.2,.18-.2,.31l.05,6.76c0,.3,.4,.47,.69,.3l1.9-1.13,.51,22.24c0,.23,.12,.44,.31,.58l5.55,3.94c.08,.06,.18,.09,.27,.09,.11,0,.23-.03,.32-.1l1.77-1.26,3.77-2.68c.19-.13,.3-.35,.31-.58l.51-22.24,1.9,1.13c.29,.17,.69,0,.69-.3l.05-6.76c0-.12-.07-.24-.2-.31Z"/>
  <path class="cls-3" d="M69.88,77.73l-.52-.9c-.06-.12-.23-.15-.35-.08v-.08s-4.57,2.82-4.57,2.82c-.06,.04-.09,.1-.09,.16v.28c-.01,.07-.05,.13-.11,.17l-.56,.33-.56-.33c-.06-.04-.1-.1-.1-.17v-.28c-.01-.06-.05-.12-.1-.16l-4.57-2.82v.08c-.11-.07-.28-.04-.34,.08l-.52,.9c-.05,.09-.02,.2,.07,.26l1.07,.67c.06,.04,.1,.1,.1,.16l.5,14.54c1.03,.14,1.88,.58,2.54,1.31,.5,.55,1.04,1.07,1.57,1.6,.12,.11,.21,.24,.29,.36l-.42-12.26,.49-.31,.49,.31-.42,12.26c.08-.13,.17-.25,.29-.36,.53-.53,1.07-1.04,1.57-1.6,.65-.73,1.5-1.17,2.54-1.31l.5-14.54c0-.07,.04-.13,.1-.16l1.07-.67c.09-.06,.12-.17,.07-.26Z"/>
  <path class="cls-5" d="M142.68,54.05c0-.58,.21-1.1,.62-1.55,.41-.45,.95-.68,1.61-.68h58.01c.66,0,1.2,.23,1.62,.68,.41,.46,.62,.98,.62,1.55v3.98c0,1.57-.75,2.36-2.24,2.36h-58.01c-.66,0-1.2-.23-1.61-.68-.42-.46-.62-1.01-.62-1.68v-3.98Zm26.33,15.4c0-.66,.23-1.2,.68-1.61,.46-.41,1.01-.62,1.68-.62h4.97c.66,0,1.2,.21,1.61,.62,.41,.42,.62,.95,.62,1.61v44.22c0,.66-.21,1.2-.62,1.62-.42,.41-.95,.62-1.61,.62h-4.97c-.66,0-1.22-.21-1.68-.62-.46-.41-.68-.95-.68-1.62v-44.22Z"/>
  <path class="cls-5" d="M215.1,65.35c0-.58,.21-1.08,.62-1.49s.91-.62,1.49-.62h4.72c.58,0,1.08,.21,1.49,.62,.41,.42,.62,.91,.62,1.49v48.45c0,.58-.21,1.08-.62,1.49-.42,.41-.91,.62-1.49,.62h-4.72c-.58,0-1.08-.21-1.49-.62-.42-.41-.62-.91-.62-1.49v-48.45Z"/>
  <path class="cls-5" d="M254.1,108.08h37.64c.58,0,1.08,.21,1.49,.62,.41,.42,.62,.91,.62,1.49v3.6c0,.58-.21,1.08-.62,1.49-.42,.41-.91,.62-1.49,.62h-43.88c-.57,0-1.06-.21-1.47-.62-.41-.41-.61-.91-.61-1.49v-48.45c0-.58,.2-1.08,.61-1.49,.41-.41,.9-.62,1.47-.62h43.38c.58,0,1.08,.21,1.49,.62,.41,.42,.62,.91,.62,1.49v3.6c0,.58-.21,1.08-.62,1.49s-.91,.62-1.49,.62h-37.14v37.02Zm6.58-21.37c0-.58,.2-1.08,.62-1.49s.91-.62,1.49-.62h25.46c.58,0,1.08,.21,1.49,.62,.41,.42,.62,.91,.62,1.49v3.6c0,.66-.21,1.18-.62,1.55-.42,.37-.91,.56-1.49,.56h-25.46c-.58,0-1.08-.19-1.49-.56-.42-.37-.62-.89-.62-1.55v-3.6Z"/>
  <path class="cls-5" d="M343.41,63.24c2.32,0,4.45,.42,6.4,1.24,1.95,.83,3.62,1.97,5.03,3.42s2.53,3.13,3.36,5.03c.83,1.91,1.24,3.98,1.24,6.21,0,3.97-1.16,7.35-3.48,10.12-2.32,2.78-5.26,4.58-8.82,5.4l14.16,19.13c.25,.42,.37,.83,.37,1.24,0,.58-.33,.87-.99,.87h-6.83c-.25,0-.52-.08-.81-.25-.29-.16-.52-.37-.68-.62l-14.78-19.88h-9.44c-.58,0-1.08-.2-1.49-.62-.42-.41-.62-.91-.62-1.49v-3.23c0-.58,.21-1.08,.62-1.49,.41-.41,.91-.62,1.49-.62h14.9c2.48,0,4.51-.78,6.09-2.36s2.36-3.6,2.36-6.09c0-2.32-.83-4.26-2.48-5.84-1.66-1.57-3.65-2.36-5.96-2.36h-23.6v42.73c0,.58-.21,1.08-.62,1.49-.42,.41-.91,.62-1.49,.62h-4.47c-.58,0-1.08-.21-1.49-.62-.42-.41-.62-.91-.62-1.49v-48.45c0-.58,.21-1.08,.62-1.49s.91-.62,1.49-.62h30.56Z"/>
  <path class="cls-5" d="M410.86,63.24c2.32,0,4.45,.42,6.4,1.24,1.95,.83,3.62,1.97,5.03,3.42,1.41,1.45,2.53,3.13,3.36,5.03,.83,1.91,1.24,3.98,1.24,6.21,0,3.97-1.16,7.35-3.48,10.12-2.32,2.78-5.26,4.58-8.82,5.4l14.16,19.13c.25,.42,.37,.83,.37,1.24,0,.58-.33,.87-.99,.87h-6.83c-.25,0-.52-.08-.81-.25-.29-.16-.52-.37-.68-.62l-14.78-19.88h-9.44c-.58,0-1.08-.2-1.49-.62-.42-.41-.62-.91-.62-1.49v-3.23c0-.58,.21-1.08,.62-1.49,.41-.41,.91-.62,1.49-.62h14.9c2.48,0,4.51-.78,6.09-2.36,1.57-1.57,2.36-3.6,2.36-6.09,0-2.32-.83-4.26-2.48-5.84-1.66-1.57-3.65-2.36-5.96-2.36h-23.6v42.73c0,.58-.21,1.08-.62,1.49-.42,.41-.91,.62-1.49,.62h-4.47c-.58,0-1.08-.21-1.49-.62-.42-.41-.62-.91-.62-1.49v-48.45c0-.58,.21-1.08,.62-1.49s.91-.62,1.49-.62h30.56Z"/>
  <path class="cls-5" d="M464.27,65.35c.25-.58,.69-1.08,1.31-1.49,.62-.41,1.22-.62,1.8-.62h4.47c.58,0,1.18,.21,1.8,.62,.62,.42,1.1,.91,1.43,1.49l25.71,48.45c.16,.5,.25,.83,.25,.99,0,.75-.42,1.12-1.24,1.12h-5.71c-.91,0-1.66-.5-2.24-1.49l-5.84-10.93h-24.22c-.83,0-1.24-.37-1.24-1.12,0-.16,.08-.5,.25-.99l1.99-3.85c.58-.99,1.32-1.49,2.23-1.49h17.02l-12.55-24.47-21.86,42.85c-.17,.42-.48,.77-.93,1.06-.46,.29-.89,.43-1.31,.43h-5.34c-.83,0-1.24-.37-1.24-1.12,0-.16,.08-.5,.25-.99l25.22-48.45Z"/>
  <path class="cls-5" d="M531.45,58.64c0-1.49,.62-3,1.86-4.53s2.94-2.3,5.09-2.3h48.69c.66,0,1.2,.23,1.61,.68,.41,.46,.62,.98,.62,1.55v4.1c0,.66-.21,1.2-.62,1.61s-.95,.62-1.61,.62h-45.96v46.95h47.57c.66,0,1.2,.21,1.61,.62,.41,.42,.62,.95,.62,1.61v4.1c0,.58-.21,1.1-.62,1.55-.42,.46-.95,.68-1.61,.68h-50.43c-1.99,0-3.63-.7-4.91-2.11-1.28-1.41-1.93-2.98-1.93-4.72V58.64Z"/>
  <path class="cls-5" d="M620.38,108.08h37.64c.58,0,1.08,.21,1.49,.62,.41,.42,.62,.91,.62,1.49v3.6c0,.58-.21,1.08-.62,1.49s-.91,.62-1.49,.62h-43.88c-.57,0-1.06-.21-1.47-.62-.41-.41-.61-.91-.61-1.49v-48.45c0-.58,.2-1.08,.61-1.49,.41-.41,.9-.62,1.47-.62h43.38c.58,0,1.08,.21,1.49,.62,.41,.42,.62,.91,.62,1.49v3.6c0,.58-.21,1.08-.62,1.49-.41,.42-.91,.62-1.49,.62h-37.14v37.02Zm6.58-21.37c0-.58,.2-1.08,.62-1.49s.91-.62,1.49-.62h25.46c.58,0,1.08,.21,1.49,.62,.41,.42,.62,.91,.62,1.49v3.6c0,.66-.21,1.18-.62,1.55-.42,.37-.91,.56-1.49,.56h-25.46c-.58,0-1.08-.19-1.49-.56-.42-.37-.62-.89-.62-1.55v-3.6Z"/>
  <path class="cls-5" d="M709.69,63.24c2.32,0,4.45,.42,6.4,1.24,1.94,.83,3.62,1.97,5.03,3.42,1.41,1.45,2.53,3.13,3.35,5.03,.83,1.91,1.24,3.98,1.24,6.21,0,3.97-1.16,7.35-3.48,10.12-2.32,2.78-5.26,4.58-8.82,5.4l14.16,19.13c.25,.42,.37,.83,.37,1.24,0,.58-.33,.87-.99,.87h-6.83c-.25,0-.52-.08-.81-.25-.29-.16-.52-.37-.69-.62l-14.78-19.88h-9.44c-.58,0-1.08-.2-1.49-.62-.41-.41-.62-.91-.62-1.49v-3.23c0-.58,.21-1.08,.62-1.49s.91-.62,1.49-.62h14.91c2.48,0,4.51-.78,6.09-2.36s2.36-3.6,2.36-6.09c0-2.32-.83-4.26-2.48-5.84-1.66-1.57-3.64-2.36-5.96-2.36h-23.6v42.73c0,.58-.21,1.08-.62,1.49-.42,.41-.91,.62-1.49,.62h-4.47c-.58,0-1.08-.21-1.49-.62s-.62-.91-.62-1.49v-48.45c0-.58,.21-1.08,.62-1.49,.41-.41,.91-.62,1.49-.62h30.56Z"/>
  <path class="cls-5" d="M743.48,71.07c0-.91,.23-1.84,.68-2.8,.46-.95,1.06-1.8,1.8-2.55s1.59-1.34,2.55-1.8c.95-.45,1.88-.68,2.8-.68h40.37c.99,0,1.95,.23,2.86,.68,.91,.46,1.74,1.06,2.48,1.8,.75,.75,1.35,1.6,1.8,2.55,.46,.95,.68,1.89,.68,2.8v37.02c0,.91-.23,1.84-.68,2.8s-1.06,1.8-1.8,2.55c-.74,.75-1.57,1.35-2.48,1.8-.91,.46-1.86,.68-2.86,.68h-40.37c-.91,0-1.84-.23-2.8-.68s-1.8-1.06-2.55-1.8-1.35-1.59-1.8-2.55-.68-1.88-.68-2.8v-37.02Zm8.57,37.02h38.88v-37.02h-38.88v37.02Z"/>
</svg>